<svg xmlns="http://www.w3.org/2000/svg" xmlns:xlink="http://www.w3.org/1999/xlink" contentStyleType="text/css" data-diagram-type="CLASS" height="899.0625px" preserveAspectRatio="none" style="width:1026px;height:899px;background:#FEFEFE;" version="1.1" viewBox="0 0 1026 899" width="1026.5625px" zoomAndPan="magnify"><title>Ricardo Auth Starter - Domain Model</title><defs/><g><rect fill="#FEFEFE" height="899.0625" style="stroke:none;stroke-width:0.9375;" width="1026.5625" x="0" y="0"/><g class="title" data-source-line="10"><polygon fill="none" points="320.1368,18.75,320.1368,18.947,329.6023,18.3616,339.0679,18.9312,348.5334,19.1247,357.999,18.0812,367.4645,18.6771,376.9301,18.3502,386.3956,18.3905,395.8612,18.6861,405.3267,18.1018,414.7923,19.269,424.2578,18.1591,433.7233,18.5646,443.1889,19.155,452.6544,18.6696,462.12,18.814,471.5855,18.72,481.0511,18.9174,490.5166,18.9742,499.9822,19.2991,509.4477,19.3791,518.9133,19.3868,528.3788,18.9887,537.8443,19.1846,547.3099,19.4083,556.7754,18.0739,566.241,19.3861,575.7065,18.472,585.1721,19.2504,594.6376,18.2859,604.1032,18.6858,613.5687,19.4453,623.0343,18.7043,632.4998,18.8487,641.9653,19.0675,651.4309,19.1402,660.8964,18.7463,670.362,19.0193,679.8275,18.2134,689.2931,19.0166,698.7586,18.75,698.8242,18.9083,699.3421,19.098,699.8926,19.3663,700.2918,19.2695,700.8019,19.4404,701.4103,19.8483,701.2309,19.774,701.6129,20.3716,701.7929,20.8855,702.266,21.5208,702.2385,21.9488,702.5086,22.5,702.187,22.5,702.7226,31.66,701.8835,40.8201,702.0219,49.9801,703.117,59.1401,702.5086,68.3002,702.6344,68.3523,702.501,68.9183,701.9764,69.3223,701.9418,69.9293,701.8004,70.4921,701.4103,70.9518,701.3538,70.8154,700.8685,71.1438,700.3647,71.4275,699.8972,71.799,699.2885,71.8293,698.7586,72.0502,698.7586,72.4838,689.2931,71.531,679.8275,71.4152,670.362,72.5223,660.8964,71.378,651.4309,72.5273,641.9653,72.2439,632.4998,71.799,623.0343,71.7185,613.5687,72.4803,604.1032,71.7695,594.6376,72.605,585.1721,71.532,575.7065,72.629,566.241,72.5042,556.7754,72.2798,547.3099,72.0944,537.8443,72.7314,528.3788,72.6254,518.9133,72.2088,509.4477,72.3016,499.9822,71.928,490.5166,72.7218,481.0511,72.1954,471.5855,72.212,462.12,71.4798,452.6544,71.6703,443.1889,72.5477,433.7233,72.4531,424.2578,72.0099,414.7923,71.7481,405.3267,71.8449,395.8612,71.4069,386.3956,72.439,376.9301,72.7435,367.4645,72.5437,357.999,72.7017,348.5334,71.922,339.0679,72.1319,329.6023,71.6868,320.1368,72.0502,320.1708,72.1322,319.636,71.9017,319.1422,71.7703,318.5183,71.3249,317.9994,71.1327,317.4851,70.9518,317.6132,71.0049,317.4293,70.4893,316.8978,69.8299,316.7702,69.3376,316.6496,68.8484,316.3868,68.3002,315.8141,68.3002,316.7181,59.1401,316.6287,49.9801,316.2923,40.8201,316.5202,31.66,316.3868,22.5,316.5972,22.5871,316.5161,21.9323,316.9171,21.477,317.1283,20.9432,317.2989,20.3925,317.4851,19.8483,317.502,19.889,318.029,19.6614,318.4712,19.2288,319.0282,19.0736,319.5513,18.8364,320.1368,18.75" style="stroke:#4D4D4D;stroke-width:0.9375;"/><text fill="#2E2E2E" font-family="Segoe Print" font-size="18.75" font-weight="bold" lengthAdjust="spacing" textLength="365.4968" x="326.6993" y="52.4542">Ricardo Auth Starter - Domain Model</text></g><!--class AuthUser--><g class="entity" data-entity="AuthUser" data-source-line="12" data-uid="ent0002" id="entity_AuthUser"><polygon fill="#F8F9FA" points="382.5,91.7377,382.5,91.9347,391.7736,91.3492,401.0473,91.9189,410.3209,92.1124,419.5945,91.0689,428.8681,91.6648,438.1418,91.3378,447.4154,91.3781,456.689,91.6738,465.9627,91.0895,475.2363,92.2567,484.5099,91.1468,493.7835,91.5523,503.0572,92.1426,512.3308,91.6573,521.6044,91.8016,530.8781,91.7077,540.1517,91.905,549.4253,91.9619,558.699,92.2868,567.9726,92.3668,577.2462,92.3745,586.5198,91.9764,595.7935,92.1723,605.0671,92.396,614.3407,91.0616,623.6144,92.3738,632.888,91.4597,642.1616,92.2381,651.4352,91.7377,651.376,91.5948,651.9574,91.9376,652.5846,92.3911,653.0204,92.3826,653.5692,92.6468,654.0869,92.836,654.1847,92.8765,654.4267,93.4161,654.5251,93.8962,654.8288,94.4614,654.8003,94.8889,655.1852,95.4877,655.4519,95.4877,655.6992,105.0115,655.602,114.5354,655.76,124.0592,654.7324,133.5831,654.5738,143.1069,654.6027,152.6307,655.13,162.1546,655.001,171.6784,655.8241,181.2023,655.0215,190.7261,654.8636,200.25,655.3992,209.7738,654.5601,219.2977,654.6986,228.8215,655.7936,238.3454,655.5937,247.8692,655.8738,257.393,654.8836,266.9169,655.1852,276.4407,655.2774,276.4789,655.136,277.0417,654.6095,277.4449,654.4986,278.0203,654.3429,278.5771,654.0869,279.0924,654.1648,279.2806,653.5561,279.3108,653.0815,279.6653,652.4297,279.5915,651.8846,279.7755,651.4352,280.1907,651.4352,280.6629,642.1616,279.5186,632.888,280.6679,623.6144,280.3844,614.3407,279.9396,605.0671,279.8591,595.7935,280.6208,586.5198,279.9101,577.2462,280.7456,567.9726,279.6725,558.699,280.7696,549.4253,280.6448,540.1517,280.4204,530.8781,280.235,521.6044,280.8719,512.3308,280.766,503.0572,280.3494,493.7835,280.4422,484.5099,280.0686,475.2363,280.8624,465.9627,280.3359,456.689,280.3525,447.4154,279.6204,438.1418,279.8108,428.8681,280.6883,419.5945,280.5936,410.3209,280.1505,401.0473,279.8887,391.7736,279.9855,382.5,280.1907,382.4179,279.9926,382.0193,280.0908,381.5278,279.9649,380.972,279.6837,380.4618,279.5127,379.8483,279.0924,379.8089,279.076,379.6539,278.5725,379.2971,277.9854,379.2713,277.5354,379.0409,277.0006,378.75,276.4407,379.2679,276.4407,378.5347,266.9169,378.624,257.393,379.1657,247.8692,379.2819,238.3454,378.2695,228.8215,378.5682,219.2977,378.8899,209.7738,378.1773,200.25,379.0813,190.7261,378.9919,181.2023,378.6555,171.6784,378.8834,162.1546,379.4331,152.6307,378.4567,143.1069,379.0453,133.5831,379.0178,124.0592,378.8585,114.5354,378.8821,105.0115,378.75,95.4877,378.7828,95.5012,378.7895,94.8827,379.0736,94.3791,379.2758,93.8415,379.6471,93.374,379.8483,92.836,379.8589,92.8615,380.398,92.663,380.8742,92.3127,381.4313,92.1575,381.9553,91.9226,382.5,91.7377" style="stroke:#6C757D;stroke-width:0.9375;"/><polygon fill="none" points="483.3269,112.3787,481.9526,114.2564,480.3272,117.0066,478.0026,118.86,475.5598,119.8736,473.612,119.9615,471.1086,118.694,468.7465,117.8659,466.9537,116.1846,466.0132,114.2598,465.4555,112.7272,464.9091,110.7254,464.0222,109.0027,464.7037,107.3208,465.3008,105.4784,467.5415,104.0212,469.1179,102.1305,471.0692,101.5027,473.3888,100.962,476.3635,101.2833,477.9928,102.0516,479.887,102.3999,482.1903,104.7597,482.9932,107.2509,483.342,108.9506,482.9469,111.7516" style="stroke:#C6303E;stroke-width:0.9375;"/><path d="M475.028,108.3112 L475.028,112.7204 L476.1706,112.7204 Q476.5661,112.7204 476.7419,112.8815 Q476.9176,113.028 476.9176,113.2917 Q476.9176,113.5407 476.7419,113.7019 Q476.5661,113.8483 476.1706,113.8483 L472.7575,113.8483 Q472.362,113.8483 472.1862,113.7019 Q472.0104,113.5407 472.0104,113.2771 Q472.0104,113.028 472.1862,112.8815 Q472.362,112.7204 472.7575,112.7204 L473.9001,112.7204 L473.9001,108.3112 L472.7575,108.3112 Q472.362,108.3112 472.1862,108.1647 Q472.0104,108.0036 472.0104,107.7546 Q472.0104,107.4909 472.1862,107.3444 Q472.362,107.1833 472.7575,107.1833 L476.1706,107.1833 Q476.5661,107.1833 476.7419,107.3444 Q476.9176,107.4909 476.9176,107.7546 Q476.9176,108.0036 476.7419,108.1647 Q476.5661,108.3112 476.1706,108.3112 L475.028,108.3112 Z " fill="#2E2E2E"/><text fill="#555555" font-family="Segoe Print" font-size="10.3125" font-style="italic" lengthAdjust="spacing" textLength="48.5765" x="496.4001" y="113.9781">AuthUser</text><polygon fill="#F8F9FA" points="639.1891,88.9252,639.1891,88.9909,642.9509,88.7957,646.7126,88.9856,650.4743,89.0501,654.236,88.7022,657.9977,88.9252,657.9735,88.9252,657.8645,95.0962,657.8779,101.2672,657.9764,107.4382,657.7817,113.6093,657.9977,119.7803,657.9977,119.9533,654.236,119.5833,650.4743,119.7185,646.7126,119.9153,642.9509,119.7535,639.1891,119.7803,639.2105,119.7803,639.1792,113.6093,639.2449,107.4382,639.2639,101.2672,639.3722,95.0962,639.1891,88.9252" style="stroke:#6C757D;stroke-width:0.9375;stroke-dasharray:2.0,2.0;"/><text fill="#555555" font-family="Segoe Print" font-size="11.25" font-style="italic" lengthAdjust="spacing" textLength="7.5586" x="644.8141" y="108.5852">T</text><path d="M379.6875,128.459 L379.6875,128.7217 L389.1551,127.9411 L398.6227,128.7006 L408.0903,128.9586 L417.5579,127.5673 L427.0255,128.3619 L436.4931,127.9259 L445.9607,127.9796 L455.4283,128.3738 L464.8959,127.5948 L474.3634,129.1511 L483.831,127.6712 L493.2986,128.2118 L502.7662,128.9989 L512.2338,128.3518 L521.7014,128.5443 L531.169,128.4191 L540.6366,128.6822 L550.1042,128.7579 L559.5718,129.1911 L569.0394,129.2978 L578.507,129.3081 L587.9746,128.7773 L597.4422,129.0385 L606.9098,129.3368 L616.3774,127.5575 L625.845,129.3072 L635.3126,128.0884 L644.7801,129.1263 L654.2477,128.459" fill="#F8F9FA" style="stroke:#6C757D;stroke-width:0.9375;"/><path d="M379.6875,135.959 L379.6875,136.2217 L389.1551,135.4411 L398.6227,136.2006 L408.0903,136.4586 L417.5579,135.0673 L427.0255,135.8619 L436.4931,135.4259 L445.9607,135.4796 L455.4283,135.8738 L464.8959,135.0948 L474.3634,136.6511 L483.831,135.1712 L493.2986,135.7118 L502.7662,136.4989 L512.2338,135.8518 L521.7014,136.0443 L531.169,135.9191 L540.6366,136.1822 L550.1042,136.2579 L559.5718,136.6911 L569.0394,136.7978 L578.507,136.8081 L587.9746,136.2773 L597.4422,136.5385 L606.9098,136.8368 L616.3774,135.0575 L625.845,136.8072 L635.3126,135.5884 L644.7801,136.6263 L654.2477,135.959" fill="#F8F9FA" style="stroke:#6C757D;stroke-width:0.9375;"/><polygon fill="none" points="391.8905,155.4725,391.4783,156.0359,390.9906,156.8609,390.2933,157.4169,389.5604,157.721,388.9761,157.7474,388.2251,157.3671,387.5164,157.1187,386.9786,156.6143,386.6964,156.0369,386.5291,155.5771,386.3652,154.9765,386.0991,154.4598,386.3036,153.9552,386.4827,153.4024,387.1549,152.9653,387.6279,152.3981,388.2132,152.2097,388.9091,152.0475,389.8015,152.1439,390.2903,152.3744,390.8586,152.4789,391.5496,153.1868,391.7904,153.9342,391.8951,154.4441,391.7766,155.2844" style="stroke:#2E2E2E;stroke-width:0.9375;"/><text fill="#555555" font-family="Segoe Print" font-size="10.3125" lengthAdjust="spacing" textLength="66.3766" x="401.25" y="157.262">getId(): Long</text><polygon fill="none" points="391.8905,182.8189,391.4783,183.3822,390.9906,184.2073,390.2933,184.7633,389.5604,185.0674,388.9761,185.0937,388.2251,184.7135,387.5164,184.465,386.9786,183.9607,386.6964,183.3832,386.5291,182.9234,386.3652,182.3229,386.0991,181.8061,386.3036,181.3015,386.4827,180.7488,387.1549,180.3116,387.6279,179.7444,388.2132,179.5561,388.9091,179.3939,389.8015,179.4903,390.2903,179.7208,390.8586,179.8253,391.5496,180.5332,391.7904,181.2805,391.8951,181.7905,391.7766,182.6308" style="stroke:#2E2E2E;stroke-width:0.9375;"/><text fill="#555555" font-family="Segoe Print" font-size="10.3125" lengthAdjust="spacing" textLength="93.2607" x="401.25" y="184.6083">getEmail(): String</text><polygon fill="none" points="391.8905,210.1652,391.4783,210.7285,390.9906,211.5536,390.2933,212.1096,389.5604,212.4137,388.9761,212.4401,388.2251,212.0598,387.5164,211.8114,386.9786,211.307,386.6964,210.7296,386.5291,210.2698,386.3652,209.6692,386.0991,209.1524,386.3036,208.6479,386.4827,208.0951,387.1549,207.658,387.6279,207.0908,388.2132,206.9024,388.9091,206.7402,389.8015,206.8366,390.2903,207.0671,390.8586,207.1716,391.5496,207.8795,391.7904,208.6269,391.8951,209.1368,391.7766,209.9771" style="stroke:#2E2E2E;stroke-width:0.9375;"/><text fill="#555555" font-family="Segoe Print" font-size="10.3125" lengthAdjust="spacing" textLength="115.4567" x="401.25" y="211.9547">getUsername(): String</text><polygon fill="none" points="391.8905,237.5116,391.4783,238.0749,390.9906,238.9,390.2933,239.456,389.5604,239.76,388.9761,239.7864,388.2251,239.4062,387.5164,239.1577,386.9786,238.6533,386.6964,238.0759,386.5291,237.6161,386.3652,237.0156,386.0991,236.4988,386.3036,235.9942,386.4827,235.4415,387.1549,235.0043,387.6279,234.4371,388.2132,234.2488,388.9091,234.0866,389.8015,234.1829,390.2903,234.4135,390.8586,234.5179,391.5496,235.2259,391.7904,235.9732,391.8951,236.4832,391.7766,237.3235" style="stroke:#2E2E2E;stroke-width:0.9375;"/><text fill="#555555" font-family="Segoe Print" font-size="10.3125" lengthAdjust="spacing" textLength="92.3996" x="401.25" y="239.301">getRoles(): Set&lt;T&gt;</text><polygon fill="none" points="391.8905,264.8579,391.4783,265.4212,390.9906,266.2463,390.2933,266.8023,389.5604,267.1064,388.9761,267.1328,388.2251,266.7525,387.5164,266.5041,386.9786,265.9997,386.6964,265.4222,386.5291,264.9625,386.3652,264.3619,386.0991,263.8451,386.3036,263.3405,386.4827,262.7878,387.1549,262.3507,387.6279,261.7835,388.2132,261.5951,388.9091,261.4329,389.8015,261.5293,390.2903,261.7598,390.8586,261.8643,391.5496,262.5722,391.7904,263.3196,391.8951,263.8295,391.7766,264.6698" style="stroke:#2E2E2E;stroke-width:0.9375;"/><text fill="#555555" font-family="Segoe Print" font-size="10.3125" lengthAdjust="spacing" textLength="243.6227" x="401.25" y="266.6473">getAuthorities(): Collection&lt;GrantedAuthority&gt;</text></g><!--class User--><g class="entity" data-entity="User" data-source-line="20" data-uid="ent0003" id="entity_User"><polygon fill="#F8F9FA" points="341.7188,337.3627,341.7188,337.5597,351.1827,336.9742,360.6467,337.5439,370.1106,337.7374,379.5746,336.6939,389.0385,337.2898,398.5025,336.9628,407.9664,337.0031,417.4304,337.2988,426.8943,336.7145,436.3583,337.8817,445.8223,336.7718,455.2862,337.1773,464.7502,337.7676,474.2141,337.2823,483.6781,337.4266,493.142,337.3327,502.606,337.53,512.0699,337.5869,521.5339,337.9118,530.9978,337.9918,540.4618,337.9995,549.9258,337.6014,559.3897,337.7973,568.8537,338.021,578.3176,336.6866,587.7816,337.9988,597.2455,337.0847,606.7095,337.8631,616.1734,336.8986,625.6374,337.2985,635.1013,338.0579,644.5653,337.317,654.0293,337.4614,663.4932,337.6801,672.9572,337.7529,682.4211,337.359,691.8851,337.3627,691.9194,337.4456,692.3469,337.4171,692.9797,337.8841,693.5416,338.18,694.0596,338.3697,694.5367,338.461,694.7137,338.5343,694.6169,338.9336,694.7878,339.4437,695.0163,339.9777,695.3984,340.5753,695.6351,341.1127,695.4508,341.1127,696.2739,350.5808,695.4713,360.049,695.3135,369.5171,695.8491,378.9853,695.0099,388.4534,695.1484,397.9216,696.2435,407.3898,696.0435,416.8579,696.3237,426.3261,695.3334,435.7942,695.9343,445.2624,696.1886,454.7305,695.1922,464.1987,695.5452,473.6668,695.7532,483.135,696.2461,492.6031,695.6311,502.0713,696.0687,511.5395,695.1159,521.0076,695.0001,530.4758,696.1072,539.9439,695.6351,549.4121,695.4281,549.3263,695.5623,550.0033,695.2554,550.4974,694.8987,550.971,694.6543,551.4911,694.5367,552.0637,694.5916,552.1962,693.9706,552.197,693.5468,552.6739,692.8796,552.5632,692.4892,553.1207,691.8851,553.1621,691.8851,553.6161,682.4211,553.3917,672.9572,553.2063,663.4932,553.8433,654.0293,553.7373,644.5653,553.3208,635.1013,553.4135,625.6374,553.04,616.1734,553.8338,606.7095,553.3073,597.2455,553.3239,587.7816,552.5917,578.3176,552.7822,568.8537,553.6597,559.3897,553.565,549.9258,553.1218,540.4618,552.86,530.9978,552.9568,521.5339,552.5188,512.0699,553.5509,502.606,553.8554,493.142,553.6556,483.6781,553.8136,474.2141,553.0339,464.7502,553.2438,455.2862,552.7987,445.8223,553.4284,436.3583,553.3934,426.8943,553.6799,417.4304,552.9468,407.9664,553.0361,398.5025,553.5778,389.0385,553.694,379.5746,552.6816,370.1106,552.9803,360.6467,553.302,351.1827,552.5894,341.7188,553.1621,341.761,553.2641,341.2193,553.0169,340.646,552.6936,340.1448,552.5441,339.6846,552.4938,339.0671,552.0637,338.9768,552.0263,338.9384,551.5711,338.7102,551.0372,338.4415,550.4866,338.2291,549.9593,337.9688,549.4121,338.0751,549.4121,337.3836,539.9439,337.593,530.4758,337.5361,521.0076,338.0286,511.5395,338.0514,502.0713,338.1204,492.6031,337.696,483.135,337.9055,473.6668,337.856,464.1987,338.5096,454.7305,338.3687,445.2624,337.5136,435.7942,337.9004,426.3261,337.4276,416.8579,338.2391,407.3898,338.5392,397.9216,338.4793,388.4534,337.5604,378.9853,338.4037,369.5171,337.2724,360.049,338.1564,350.5808,337.9688,341.1127,337.8823,341.0769,338.2163,340.5939,338.4775,340.0808,338.7641,339.5781,338.6396,338.9053,339.0671,338.461,339.124,338.5983,339.6187,338.2928,340.1703,338.1243,340.7475,338.0179,341.1891,337.5839,341.7188,337.3627" style="stroke:#6C757D;stroke-width:0.9375;"/><polygon fill="none" points="506.3004,358.0037,504.9262,359.8814,503.3008,362.6316,500.9761,364.485,498.5333,365.4986,496.5856,365.5865,494.0822,364.319,491.7201,363.4909,489.9272,361.8096,488.9867,359.8848,488.429,358.3522,487.8826,356.3504,486.9958,354.6277,487.6773,352.9458,488.2744,351.1034,490.5151,349.6462,492.0915,347.7555,494.0427,347.1277,496.3624,346.587,499.337,346.9083,500.9663,347.6766,502.8606,348.0249,505.1638,350.3847,505.9667,352.8759,506.3156,354.5756,505.9205,357.3766" style="stroke:#4D4D4D;stroke-width:0.9375;"/><path d="M498.2652,353.1013 Q498.3678,352.9548 498.485,352.8815 Q498.6168,352.8083 498.7633,352.8083 Q499.0123,352.8083 499.1588,352.9841 Q499.3199,353.1599 499.3199,353.5554 L499.3199,354.5222 Q499.3199,354.9177 499.1588,355.0935 Q499.0123,355.2692 498.7633,355.2692 Q498.5289,355.2692 498.3971,355.1374 Q498.2652,355.0202 498.192,354.6687 Q498.1627,354.4343 498.0455,354.3171 Q497.8111,354.0681 497.401,353.9216 Q497.0055,353.7751 496.5953,353.7751 Q496.0973,353.7751 495.6725,353.9948 Q495.2477,354.2146 494.9254,354.7126 Q494.6031,355.196 494.6031,355.8845 L494.6031,356.6169 Q494.6031,357.4226 495.1891,357.9646 Q495.7896,358.5065 496.8297,358.5065 Q497.4596,358.5065 497.899,358.3454 Q498.148,358.2429 498.4264,357.9499 Q498.6021,357.7741 498.7047,357.7302 Q498.8072,357.6716 498.9244,357.6716 Q499.1588,357.6716 499.3199,357.8474 Q499.4957,358.0085 499.4957,358.2429 Q499.4957,358.4772 499.2613,358.7409 Q498.9244,359.1218 498.3971,359.3415 Q497.6939,359.6345 496.8443,359.6345 Q495.8336,359.6345 495.0426,359.2243 Q494.3834,358.9021 493.9293,358.1843 Q493.4752,357.4665 493.4752,356.6315 L493.4752,355.8698 Q493.4752,354.9909 493.8853,354.2292 Q494.2955,353.4675 495.0133,353.0573 Q495.7457,352.6472 496.5514,352.6472 Q497.0494,352.6472 497.4742,352.7644 Q497.899,352.8669 498.2652,353.1013 Z " fill="#2E2E2E"/><text fill="#555555" font-family="Segoe Print" font-size="10.3125" lengthAdjust="spacing" textLength="22.9816" x="519.3736" y="359.6031">User</text><path d="M338.9063,374.084 L338.9063,374.3467 L348.2692,373.5661 L357.6321,374.3256 L366.995,374.5836 L376.358,373.1923 L385.7209,373.9869 L395.0838,373.5509 L404.4468,373.6046 L413.8097,373.9988 L423.1726,373.2198 L432.5355,374.7761 L441.8985,373.2962 L451.2614,373.8368 L460.6243,374.6239 L469.9873,373.9768 L479.3502,374.1693 L488.7131,374.0441 L498.0761,374.3072 L507.439,374.3829 L516.8019,374.8161 L526.1648,374.9228 L535.5278,374.9331 L544.8907,374.4023 L554.2536,374.6635 L563.6166,374.9618 L572.9795,373.1825 L582.3424,374.9322 L591.7053,373.7134 L601.0683,374.7513 L610.4312,373.4652 L619.7941,373.9984 L629.1571,375.011 L638.52,374.0231 L647.8829,374.2156 L657.2459,374.5073 L666.6088,374.6043 L675.9717,374.0791 L685.3346,374.443 L694.6976,374.084" fill="#F8F9FA" style="stroke:#6C757D;stroke-width:0.9375;"/><polygon fill="none" points="345.4688,390.1009,345.4688,390.1666,346.5938,389.9715,347.7188,390.1613,348.8438,390.2258,349.9688,389.878,351.0938,390.1009,351.0695,390.1009,350.9605,391.2259,350.9739,392.3509,351.0725,393.4759,350.8777,394.6009,351.0938,395.7259,351.0938,395.8989,349.9688,395.529,348.8438,395.6641,347.7188,395.8609,346.5938,395.6991,345.4688,395.7259,345.4901,395.7259,345.4588,394.6009,345.5245,393.4759,345.5435,392.3509,345.6518,391.2259,345.4688,390.1009" style="stroke:#2E2E2E;stroke-width:0.9375;"/><text fill="#555555" font-family="Segoe Print" font-size="10.3125" lengthAdjust="spacing" textLength="42.0758" x="360.4688" y="395.387">id: Long</text><polygon fill="none" points="345.4688,417.4473,345.4688,417.513,346.5938,417.3178,347.7188,417.5077,348.8438,417.5722,349.9688,417.2243,351.0938,417.4473,351.0695,417.4473,350.9605,418.5723,350.9739,419.6973,351.0725,420.8223,350.8777,421.9473,351.0938,423.0723,351.0938,423.2453,349.9688,422.8753,348.8438,423.0105,347.7188,423.2073,346.5938,423.0455,345.4688,423.0723,345.4901,423.0723,345.4588,421.9473,345.5245,420.8223,345.5435,419.6973,345.6518,418.5723,345.4688,417.4473" style="stroke:#2E2E2E;stroke-width:0.9375;"/><text fill="#555555" font-family="Segoe Print" font-size="10.3125" lengthAdjust="spacing" textLength="109.1624" x="360.4688" y="422.7333">username: Username</text><polygon fill="none" points="345.4688,444.7936,345.4688,444.8593,346.5938,444.6641,347.7188,444.854,348.8438,444.9185,349.9688,444.5707,351.0938,444.7936,351.0695,444.7936,350.9605,445.9186,350.9739,447.0436,351.0725,448.1686,350.8777,449.2936,351.0938,450.4186,351.0938,450.5916,349.9688,450.2217,348.8438,450.3568,347.7188,450.5536,346.5938,450.3918,345.4688,450.4186,345.4901,450.4186,345.4588,449.2936,345.5245,448.1686,345.5435,447.0436,345.6518,445.9186,345.4688,444.7936" style="stroke:#2E2E2E;stroke-width:0.9375;"/><text fill="#555555" font-family="Segoe Print" font-size="10.3125" lengthAdjust="spacing" textLength="64.7804" x="360.4688" y="450.0797">email: Email</text><polygon fill="none" points="345.4688,472.14,345.4688,472.2057,346.5938,472.0105,347.7188,472.2004,348.8438,472.2649,349.9688,471.917,351.0938,472.14,351.0695,472.14,350.9605,473.265,350.9739,474.39,351.0725,475.515,350.8777,476.64,351.0938,477.765,351.0938,477.938,349.9688,477.568,348.8438,477.7032,347.7188,477.9,346.5938,477.7382,345.4688,477.765,345.4901,477.765,345.4588,476.64,345.5245,475.515,345.5435,474.39,345.6518,473.265,345.4688,472.14" style="stroke:#2E2E2E;stroke-width:0.9375;"/><text fill="#555555" font-family="Segoe Print" font-size="10.3125" lengthAdjust="spacing" textLength="104.7363" x="360.4688" y="477.426">password: Password</text><polygon fill="none" points="345.4688,499.4863,345.4688,499.552,346.5938,499.3568,347.7188,499.5467,348.8438,499.6112,349.9688,499.2634,351.0938,499.4863,351.0695,499.4863,350.9605,500.6113,350.9739,501.7363,351.0725,502.8613,350.8777,503.9863,351.0938,505.1113,351.0938,505.2843,349.9688,504.9144,348.8438,505.0495,347.7188,505.2463,346.5938,505.0845,345.4688,505.1113,345.4901,505.1113,345.4588,503.9863,345.5245,502.8613,345.5435,501.7363,345.6518,500.6113,345.4688,499.4863" style="stroke:#2E2E2E;stroke-width:0.9375;"/><text fill="#555555" font-family="Segoe Print" font-size="10.3125" lengthAdjust="spacing" textLength="102.2035" x="360.4688" y="504.7723">roles: Set&lt;AppRole&gt;</text><path d="M338.9063,518.3157 L338.9063,518.5785 L348.2692,517.7978 L357.6321,518.5573 L366.995,518.8153 L376.358,517.424 L385.7209,518.2186 L395.0838,517.7826 L404.4468,517.8364 L413.8097,518.2305 L423.1726,517.4515 L432.5355,519.0078 L441.8985,517.5279 L451.2614,518.0685 L460.6243,518.8557 L469.9873,518.2085 L479.3502,518.401 L488.7131,518.2758 L498.0761,518.5389 L507.439,518.6147 L516.8019,519.0478 L526.1648,519.1546 L535.5278,519.1648 L544.8907,518.634 L554.2536,518.8952 L563.6166,519.1935 L572.9795,517.4143 L582.3424,519.1639 L591.7053,517.9451 L601.0683,518.983 L610.4312,517.697 L619.7941,518.2301 L629.1571,519.2427 L638.52,518.2548 L647.8829,518.4474 L657.2459,518.739 L666.6088,518.836 L675.9717,518.3109 L685.3346,518.6748 L694.6976,518.3157" fill="#F8F9FA" style="stroke:#6C757D;stroke-width:0.9375;"/><polygon fill="none" points="351.1093,537.8293,350.697,538.3926,350.2094,539.2176,349.512,539.7737,348.7792,540.0777,348.1948,540.1041,347.4438,539.7238,346.7352,539.4754,346.1973,538.971,345.9152,538.3936,345.7479,537.9338,345.584,537.3333,345.3179,536.8165,345.5223,536.3119,345.7015,535.7592,346.3737,535.322,346.8466,534.7548,347.432,534.5665,348.1279,534.4043,349.0203,534.5006,349.5091,534.7311,350.0773,534.8356,350.7683,535.5436,351.0092,536.2909,351.1138,536.8008,350.9953,537.6411" style="stroke:#2E2E2E;stroke-width:0.9375;"/><text fill="#555555" font-family="Segoe Print" font-size="10.3125" lengthAdjust="spacing" textLength="324.8538" x="360.4688" y="539.6187">User(username: Username, email: Email, password: Password)</text></g><!--class Username--><g class="entity" data-entity="Username" data-source-line="29" data-uid="ent0004" id="entity_Username"><polygon fill="#F8F9FA" points="19.6875,639.2377,19.6875,639.4347,28.8706,638.8492,38.0537,639.4189,47.2367,639.6124,56.4198,638.5689,65.6029,639.1648,74.786,638.8378,83.9691,638.8781,93.1522,639.1738,102.3352,638.5895,111.5183,639.7567,120.7014,638.6468,129.8845,639.0523,139.0676,639.6426,148.2507,639.1573,157.4337,639.3016,166.6168,639.2077,175.7999,639.405,184.983,639.4619,194.1661,639.7868,203.3492,639.8668,212.5322,639.8745,221.7153,639.4764,230.8984,639.6723,240.0815,639.2377,240.1655,639.4404,240.5256,639.2491,241.2233,639.8729,241.637,639.8111,242.2666,640.2705,242.7331,640.336,242.5902,640.2768,242.933,640.8582,243.3866,641.4854,243.3781,641.9212,243.6422,642.4699,243.8315,642.9877,244.1489,642.9877,244.2217,652.7,243.8278,662.4123,244.1007,672.1247,243.2948,681.837,244.0981,691.5494,244.3454,701.2617,244.2482,710.974,244.4062,720.6864,243.3786,730.3987,243.2201,740.111,243.2489,749.8234,243.7763,759.5357,243.8315,769.248,243.7747,769.2245,243.8085,769.8599,243.3417,770.2878,243.0734,770.798,243.0187,771.3967,242.7331,771.8997,242.6534,771.7072,242.1407,771.9695,241.7501,772.5264,241.1942,772.6845,240.6996,772.9904,240.0815,772.998,240.0815,772.6964,230.8984,773.2973,221.7153,773.5516,212.5322,772.5552,203.3492,772.9082,194.1661,773.1162,184.983,773.6091,175.7999,772.9941,166.6168,773.4317,157.4337,772.4789,148.2507,772.3631,139.0676,773.4702,129.8845,772.3259,120.7014,773.4752,111.5183,773.1918,102.3352,772.7469,93.1522,772.6664,83.9691,773.4281,74.786,772.7174,65.6029,773.5529,56.4198,772.4798,47.2367,773.5769,38.0537,773.4521,28.8706,773.2277,19.6875,772.998,19.6931,773.0117,19.2441,772.9882,18.7002,772.7359,18.1168,772.3879,17.5983,772.1968,17.0358,771.8997,16.9982,771.8841,17.023,771.455,16.6412,770.8576,16.4267,770.3293,15.9815,769.7056,15.9375,769.248,15.5576,769.248,16.4351,759.5357,16.3404,749.8234,15.8973,740.111,15.6355,730.3987,15.7323,720.6864,15.2942,710.974,16.3263,701.2617,16.6308,691.5494,16.431,681.837,16.589,672.1247,15.8093,662.4123,16.0193,652.7,15.9375,642.9877,15.8256,642.9413,16.2392,642.4913,16.4481,641.9565,16.756,641.4627,16.7499,640.8389,17.0358,640.336,17.0198,640.2972,17.6192,640.2444,18.1644,640.0605,18.5655,639.529,19.134,639.4014,19.6875,639.2377" style="stroke:#6C757D;stroke-width:0.9375;"/><polygon fill="none" points="104.9566,659.8787,103.5824,661.7564,101.957,664.5066,99.6323,666.36,97.1895,667.3736,95.2417,667.4615,92.7383,666.194,90.3762,665.3659,88.5834,663.6846,87.6429,661.7598,87.0852,660.2272,86.5388,658.2254,85.6519,656.5027,86.3334,654.8208,86.9305,652.9784,89.1712,651.5212,90.7477,649.6305,92.6989,649.0027,95.0185,648.462,97.9932,648.7833,99.6225,649.5516,101.5168,649.8999,103.82,652.2597,104.6229,654.7509,104.9718,656.4506,104.5766,659.2516" style="stroke:#4D4D4D;stroke-width:0.9375;"/><path d="M96.9214,654.9763 Q97.0239,654.8298 97.1411,654.7565 Q97.2729,654.6833 97.4194,654.6833 Q97.6685,654.6833 97.8149,654.8591 Q97.9761,655.0349 97.9761,655.4304 L97.9761,656.3972 Q97.9761,656.7927 97.8149,656.9685 Q97.6685,657.1442 97.4194,657.1442 Q97.1851,657.1442 97.0532,657.0124 Q96.9214,656.8952 96.8481,656.5437 Q96.8188,656.3093 96.7017,656.1921 Q96.4673,655.9431 96.0571,655.7966 Q95.6616,655.6501 95.2515,655.6501 Q94.7534,655.6501 94.3286,655.8698 Q93.9038,656.0896 93.5815,656.5876 Q93.2593,657.071 93.2593,657.7595 L93.2593,658.4919 Q93.2593,659.2976 93.8452,659.8396 Q94.4458,660.3815 95.4858,660.3815 Q96.1157,660.3815 96.5552,660.2204 Q96.8042,660.1179 97.0825,659.8249 Q97.2583,659.6491 97.3608,659.6052 Q97.4634,659.5466 97.5806,659.5466 Q97.8149,659.5466 97.9761,659.7224 Q98.1519,659.8835 98.1519,660.1179 Q98.1519,660.3522 97.9175,660.6159 Q97.5806,660.9968 97.0532,661.2165 Q96.3501,661.5095 95.5005,661.5095 Q94.4897,661.5095 93.6987,661.0993 Q93.0396,660.7771 92.5854,660.0593 Q92.1313,659.3415 92.1313,658.5065 L92.1313,657.7448 Q92.1313,656.8659 92.5415,656.1042 Q92.9517,655.3425 93.6694,654.9323 Q94.4019,654.5222 95.2075,654.5222 Q95.7056,654.5222 96.1304,654.6394 Q96.5552,654.7419 96.9214,654.9763 Z " fill="#2E2E2E"/><text fill="#555555" font-family="Segoe Print" font-size="10.3125" lengthAdjust="spacing" textLength="51.8344" x="118.0298" y="661.4781">Username</text><path d="M16.875,675.959 L16.875,676.2217 L26.2925,675.4411 L35.7099,676.2006 L45.1274,676.4586 L54.5448,675.0673 L63.9623,675.8619 L73.3797,675.4259 L82.7972,675.4796 L92.2147,675.8738 L101.6321,675.0948 L111.0496,676.6511 L120.467,675.1712 L129.8845,675.7118 L139.3019,676.4989 L148.7194,675.8518 L158.1369,676.0443 L167.5543,675.9191 L176.9718,676.1822 L186.3892,676.2579 L195.8067,676.6911 L205.2242,676.7978 L214.6416,676.8081 L224.0591,676.2773 L233.4765,676.5385 L242.894,675.959" fill="#F8F9FA" style="stroke:#6C757D;stroke-width:0.9375;"/><polygon fill="none" points="23.4375,691.9759,23.4375,692.0416,24.5625,691.8465,25.6875,692.0363,26.8125,692.1008,27.9375,691.753,29.0625,691.9759,29.0382,691.9759,28.9292,693.1009,28.9427,694.2259,29.0412,695.3509,28.8464,696.4759,29.0625,697.6009,29.0625,697.7739,27.9375,697.404,26.8125,697.5391,25.6875,697.7359,24.5625,697.5741,23.4375,697.6009,23.4588,697.6009,23.4275,696.4759,23.4933,695.3509,23.5122,694.2259,23.6205,693.1009,23.4375,691.9759" style="stroke:#2E2E2E;stroke-width:0.9375;"/><text fill="#555555" font-family="Segoe Print" font-size="10.3125" lengthAdjust="spacing" textLength="89.7409" x="38.4375" y="697.262">username: String</text><path d="M16.875,710.8054 L16.875,711.0681 L26.2925,710.2875 L35.7099,711.047 L45.1274,711.305 L54.5448,709.9136 L63.9623,710.7082 L73.3797,710.2722 L82.7972,710.326 L92.2147,710.7202 L101.6321,709.9411 L111.0496,711.4974 L120.467,710.0175 L129.8845,710.5582 L139.3019,711.3453 L148.7194,710.6981 L158.1369,710.8907 L167.5543,710.7654 L176.9718,711.0285 L186.3892,711.1043 L195.8067,711.5375 L205.2242,711.6442 L214.6416,711.6544 L224.0591,711.1236 L233.4765,711.3848 L242.894,710.8054" fill="#F8F9FA" style="stroke:#6C757D;stroke-width:0.9375;"/><polygon fill="none" points="29.078,730.3189,28.6658,730.8822,28.1781,731.7073,27.4808,732.2633,26.7479,732.5674,26.1636,732.5937,25.4126,732.2135,24.7039,731.965,24.1661,731.4607,23.8839,730.8832,23.7166,730.4234,23.5527,729.8229,23.2866,729.3061,23.4911,728.8015,23.6702,728.2488,24.3424,727.8116,24.8154,727.2444,25.4007,727.0561,26.0966,726.8939,26.989,726.9903,27.4778,727.2208,28.0461,727.3253,28.7371,728.0332,28.9779,728.7805,29.0826,729.2905,28.9641,730.1308" style="stroke:#2E2E2E;stroke-width:0.9375;"/><text fill="#555555" font-family="Segoe Print" font-size="10.3125" lengthAdjust="spacing" textLength="195.0815" x="38.4375" y="732.1083">valueOf(username: String): Username</text><polygon fill="none" points="29.078,757.6652,28.6658,758.2285,28.1781,759.0536,27.4808,759.6096,26.7479,759.9137,26.1636,759.9401,25.4126,759.5598,24.7039,759.3114,24.1661,758.807,23.8839,758.2296,23.7166,757.7698,23.5527,757.1692,23.2866,756.6524,23.4911,756.1479,23.6702,755.5951,24.3424,755.158,24.8154,754.5908,25.4007,754.4024,26.0966,754.2402,26.989,754.3366,27.4778,754.5671,28.0461,754.6716,28.7371,755.3795,28.9779,756.1269,29.0826,756.6368,28.9641,757.4771" style="stroke:#2E2E2E;stroke-width:0.9375;"/><text fill="#555555" font-family="Segoe Print" font-size="10.3125" lengthAdjust="spacing" textLength="115.4567" x="38.4375" y="759.4547">getUsername(): String</text></g><!--class Email--><g class="entity" data-entity="Email" data-source-line="35" data-uid="ent0005" id="entity_Email"><polygon fill="#F8F9FA" points="280.7813,639.2377,280.7813,639.4347,290.045,638.8492,299.3088,639.4189,308.5726,639.6124,317.8364,638.5689,327.1002,639.1648,336.364,638.8378,345.6278,638.8781,354.8916,639.1738,364.1553,638.5895,373.4191,639.7567,382.6829,638.6468,391.9467,639.0523,401.2105,639.6426,410.4743,639.1573,419.7381,639.3016,429.0019,639.2077,438.2656,639.405,447.5294,639.4619,456.7932,639.2377,456.8633,639.4068,457.4038,639.6511,457.9351,639.8731,458.4147,639.9702,458.97,640.2502,459.4449,640.336,459.6476,640.42,459.4563,640.7801,460.0801,641.4778,460.0183,641.8916,460.4777,642.5212,460.5432,642.9877,460.0791,642.9877,460.479,652.7,461.2385,662.4123,460.4975,672.1247,460.6419,681.837,460.8607,691.5494,460.9334,701.2617,460.5396,710.974,460.8125,720.6864,460.0066,730.3987,460.8098,740.111,461.0571,749.8234,460.96,759.5357,460.5432,769.248,460.7202,769.3214,460.1841,769.7206,459.9156,770.2307,459.7048,770.7647,459.6475,771.3623,459.4449,771.8997,459.4214,771.843,458.996,772.3161,458.3633,772.2886,457.8128,772.4597,457.3508,772.8443,456.7932,772.998,456.7932,772.3729,447.5294,772.5114,438.2656,773.6064,429.0019,773.4065,419.7381,773.6866,410.4743,772.6964,401.2105,773.2973,391.9467,773.5516,382.6829,772.5552,373.4191,772.9082,364.1553,773.1162,354.8916,773.6091,345.6278,772.9941,336.364,773.4317,327.1002,772.4789,317.8364,772.3631,308.5726,773.4702,299.3088,772.3259,290.045,773.4752,280.7813,772.998,280.806,773.0577,280.2189,772.701,279.6783,772.4566,279.2451,772.4715,278.6241,772.0329,278.1296,771.8997,278.3005,771.9705,277.7503,771.3033,277.8685,770.9129,277.6104,770.3666,277.3216,769.8077,277.0313,769.248,277.0755,769.248,277.7124,759.5357,277.6065,749.8234,277.1899,740.111,277.2827,730.3987,276.9091,720.6864,277.7029,710.974,277.1764,701.2617,277.193,691.5494,276.4609,681.837,276.6514,672.1247,277.5288,662.4123,277.4342,652.7,277.0313,642.9877,277.0189,642.9825,277.1579,642.4188,277.4074,641.9008,277.4922,641.3146,278.0297,640.9159,278.1296,640.336,278.218,640.5495,278.7229,640.2683,279.2734,640.0973,279.7042,639.6375,280.2614,639.4825,280.7813,639.2377" style="stroke:#6C757D;stroke-width:0.9375;"/><polygon fill="none" points="354.9573,659.8787,353.5831,661.7564,351.9577,664.5066,349.6331,666.36,347.1903,667.3736,345.2425,667.4615,342.7391,666.194,340.377,665.3659,338.5841,663.6846,337.6437,661.7598,337.0859,660.2272,336.5396,658.2254,335.6527,656.5027,336.3342,654.8208,336.9313,652.9784,339.172,651.5212,340.7484,649.6305,342.6996,649.0027,345.0193,648.462,347.994,648.7833,349.6232,649.5516,351.5175,649.8999,353.8208,652.2597,354.6237,654.7509,354.9725,656.4506,354.5774,659.2516" style="stroke:#4D4D4D;stroke-width:0.9375;"/><path d="M346.9221,654.9763 Q347.0247,654.8298 347.1419,654.7565 Q347.2737,654.6833 347.4202,654.6833 Q347.6692,654.6833 347.8157,654.8591 Q347.9768,655.0349 347.9768,655.4304 L347.9768,656.3972 Q347.9768,656.7927 347.8157,656.9685 Q347.6692,657.1442 347.4202,657.1442 Q347.1858,657.1442 347.054,657.0124 Q346.9221,656.8952 346.8489,656.5437 Q346.8196,656.3093 346.7024,656.1921 Q346.468,655.9431 346.0579,655.7966 Q345.6624,655.6501 345.2522,655.6501 Q344.7542,655.6501 344.3294,655.8698 Q343.9046,656.0896 343.5823,656.5876 Q343.26,657.071 343.26,657.7595 L343.26,658.4919 Q343.26,659.2976 343.846,659.8396 Q344.4466,660.3815 345.4866,660.3815 Q346.1165,660.3815 346.5559,660.2204 Q346.805,660.1179 347.0833,659.8249 Q347.2591,659.6491 347.3616,659.6052 Q347.4641,659.5466 347.5813,659.5466 Q347.8157,659.5466 347.9768,659.7224 Q348.1526,659.8835 348.1526,660.1179 Q348.1526,660.3522 347.9182,660.6159 Q347.5813,660.9968 347.054,661.2165 Q346.3509,661.5095 345.5013,661.5095 Q344.4905,661.5095 343.6995,661.0993 Q343.0403,660.7771 342.5862,660.0593 Q342.1321,659.3415 342.1321,658.5065 L342.1321,657.7448 Q342.1321,656.8659 342.5423,656.1042 Q342.9524,655.3425 343.6702,654.9323 Q344.4026,654.5222 345.2083,654.5222 Q345.7063,654.5222 346.1311,654.6394 Q346.5559,654.7419 346.9221,654.9763 Z " fill="#2E2E2E"/><text fill="#555555" font-family="Segoe Print" font-size="10.3125" lengthAdjust="spacing" textLength="29.6384" x="368.0305" y="661.4781">Email</text><path d="M277.9688,675.959 L277.9688,676.2217 L287.5286,675.4411 L297.0884,676.2006 L306.6483,676.4586 L316.2081,675.0673 L325.768,675.8619 L335.3278,675.4259 L344.8876,675.4796 L354.4475,675.8738 L364.0073,675.0948 L373.5672,676.6511 L383.127,675.1712 L392.6868,675.7118 L402.2467,676.4989 L411.8065,675.8518 L421.3664,676.0443 L430.9262,675.9191 L440.486,676.1822 L450.0459,676.2579 L459.6057,675.959" fill="#F8F9FA" style="stroke:#6C757D;stroke-width:0.9375;"/><polygon fill="none" points="284.5313,691.9759,284.5313,692.0416,285.6563,691.8465,286.7813,692.0363,287.9063,692.1008,289.0313,691.753,290.1563,691.9759,290.132,691.9759,290.023,693.1009,290.0364,694.2259,290.135,695.3509,289.9402,696.4759,290.1563,697.6009,290.1563,697.7739,289.0313,697.404,287.9063,697.5391,286.7813,697.7359,285.6563,697.5741,284.5313,697.6009,284.5526,697.6009,284.5213,696.4759,284.587,695.3509,284.606,694.2259,284.7143,693.1009,284.5313,691.9759" style="stroke:#2E2E2E;stroke-width:0.9375;"/><text fill="#555555" font-family="Segoe Print" font-size="10.3125" lengthAdjust="spacing" textLength="67.5549" x="299.5313" y="697.262">email: String</text><path d="M277.9688,710.8054 L277.9688,711.0681 L287.5286,710.2875 L297.0884,711.047 L306.6483,711.305 L316.2081,709.9136 L325.768,710.7082 L335.3278,710.2722 L344.8876,710.326 L354.4475,710.7202 L364.0073,709.9411 L373.5672,711.4974 L383.127,710.0175 L392.6868,710.5582 L402.2467,711.3453 L411.8065,710.6981 L421.3664,710.8907 L430.9262,710.7654 L440.486,711.0285 L450.0459,711.1043 L459.6057,710.8054" fill="#F8F9FA" style="stroke:#6C757D;stroke-width:0.9375;"/><polygon fill="none" points="290.1718,730.3189,289.7595,730.8822,289.2719,731.7073,288.5745,732.2633,287.8417,732.5674,287.2573,732.5937,286.5063,732.2135,285.7977,731.965,285.2598,731.4607,284.9777,730.8832,284.8104,730.4234,284.6465,729.8229,284.3804,729.3061,284.5848,728.8015,284.764,728.2488,285.4362,727.8116,285.9091,727.2444,286.4945,727.0561,287.1904,726.8939,288.0828,726.9903,288.5716,727.2208,289.1398,727.3253,289.8308,728.0332,290.0717,728.7805,290.1763,729.2905,290.0578,730.1308" style="stroke:#2E2E2E;stroke-width:0.9375;"/><text fill="#555555" font-family="Segoe Print" font-size="10.3125" lengthAdjust="spacing" textLength="150.6995" x="299.5313" y="732.1083">valueOf(email: String): Email</text><polygon fill="none" points="290.1718,757.6652,289.7595,758.2285,289.2719,759.0536,288.5745,759.6096,287.8417,759.9137,287.2573,759.9401,286.5063,759.5598,285.7977,759.3114,285.2598,758.807,284.9777,758.2296,284.8104,757.7698,284.6465,757.1692,284.3804,756.6524,284.5848,756.1479,284.764,755.5951,285.4362,755.158,285.9091,754.5908,286.4945,754.4024,287.1904,754.2402,288.0828,754.3366,288.5716,754.5671,289.1398,754.6716,289.8308,755.3795,290.0717,756.1269,290.1763,756.6368,290.0578,757.4771" style="stroke:#2E2E2E;stroke-width:0.9375;"/><text fill="#555555" font-family="Segoe Print" font-size="10.3125" lengthAdjust="spacing" textLength="93.2607" x="299.5313" y="759.4547">getEmail(): String</text></g><!--class Password--><g class="entity" data-entity="Password" data-source-line="41" data-uid="ent0006" id="entity_Password"><polygon fill="#F8F9FA" points="497.8125,639.2377,497.8125,639.4347,507.1152,638.8492,516.418,639.4189,525.7207,639.6124,535.0235,638.5689,544.3262,639.1648,553.629,638.8378,562.9317,638.8781,572.2345,639.1738,581.5372,638.5895,590.84,639.7567,600.1427,638.6468,609.4455,639.0523,618.7482,639.6426,628.051,639.1573,637.3537,639.3016,646.6565,639.2077,655.9592,639.405,665.262,639.4619,674.5647,639.7868,683.8675,639.8668,693.1702,639.8745,702.473,639.4764,711.7757,639.6723,721.0785,639.896,730.3812,638.5616,739.684,639.8738,748.9867,638.9597,758.2895,639.7381,767.5922,638.7736,776.895,639.1735,786.1977,639.9329,795.5005,639.192,804.8032,639.3364,814.106,639.5551,823.4087,639.6279,832.7115,639.2377,832.711,639.2365,833.2762,639.5403,833.7037,639.5117,834.3365,639.9788,834.8984,640.2746,835.3631,640.336,835.4915,640.3892,835.7598,640.9397,835.663,641.3389,835.8339,641.849,836.0624,642.383,836.4615,642.9877,836.4063,642.9877,836.2772,652.7,837.1003,662.4123,836.2977,672.1247,836.1399,681.837,836.6755,691.5494,835.8363,701.2617,835.9748,710.974,837.0699,720.6864,836.8699,730.3987,837.1501,740.111,836.1598,749.8234,836.7607,759.5357,836.4615,769.248,836.6319,769.3187,836.1054,769.7219,835.9945,770.2972,835.8389,770.8541,835.771,771.4473,835.3631,771.8997,835.3626,771.8985,834.8881,772.2529,834.2363,772.1792,833.6912,772.3632,833.302,772.9238,832.7115,772.998,832.7115,772.3259,823.4087,773.4752,814.106,773.1918,804.8032,772.7469,795.5005,772.6664,786.1977,773.4281,776.895,772.7174,767.5922,773.5529,758.2895,772.4798,748.9867,773.5769,739.684,773.4521,730.3812,773.2277,721.0785,773.0423,711.7757,773.6792,702.473,773.5733,693.1702,773.1567,683.8675,773.2495,674.5647,772.8759,665.262,773.6697,655.9592,773.1432,646.6565,773.1598,637.3537,772.4277,628.051,772.6182,618.7482,773.4956,609.4455,773.4009,600.1427,772.9578,590.84,772.696,581.5372,772.7928,572.2345,772.3548,562.9317,773.3869,553.629,773.6914,544.3262,773.4915,535.0235,773.6495,525.7207,772.8699,516.418,773.0798,507.1152,772.6347,497.8125,772.998,497.8465,773.0801,497.3117,772.8496,496.8179,772.7182,496.194,772.2727,495.6751,772.0806,495.1608,771.8997,495.2889,771.9527,495.105,771.4372,494.5735,770.7777,494.4459,770.2855,494.3253,769.7962,494.0625,769.248,493.4898,769.248,494.3938,759.5357,494.3044,749.8234,493.968,740.111,494.1959,730.3987,494.7456,720.6864,493.7692,710.974,494.3578,701.2617,494.3303,691.5494,494.171,681.837,494.1946,672.1247,494.1689,662.4123,493.4774,652.7,494.0625,642.9877,493.9468,642.9397,494.1489,642.4021,494.5203,641.9346,494.747,641.4072,494.9879,640.8857,495.1608,640.336,495.1261,640.252,495.6831,640.0969,496.2071,639.862,496.8208,639.8436,497.3332,639.5805,497.8125,639.2377" style="stroke:#6C757D;stroke-width:0.9375;"/><polygon fill="none" points="641.7113,659.8787,640.337,661.7564,638.7116,664.5066,636.387,666.36,633.9442,667.3736,631.9964,667.4615,629.493,666.194,627.1309,665.3659,625.3381,663.6846,624.3976,661.7598,623.8399,660.2272,623.2935,658.2254,622.4066,656.5027,623.0881,654.8208,623.6852,652.9784,625.9259,651.5212,627.5023,649.6305,629.4536,649.0027,631.7732,648.462,634.7479,648.7833,636.3772,649.5516,638.2714,649.8999,640.5747,652.2597,641.3776,654.7509,641.7264,656.4506,641.3313,659.2516" style="stroke:#4D4D4D;stroke-width:0.9375;"/><path d="M633.6761,654.9763 Q633.7786,654.8298 633.8958,654.7565 Q634.0276,654.6833 634.1741,654.6833 Q634.4231,654.6833 634.5696,654.8591 Q634.7308,655.0349 634.7308,655.4304 L634.7308,656.3972 Q634.7308,656.7927 634.5696,656.9685 Q634.4231,657.1442 634.1741,657.1442 Q633.9397,657.1442 633.8079,657.0124 Q633.6761,656.8952 633.6028,656.5437 Q633.5735,656.3093 633.4563,656.1921 Q633.222,655.9431 632.8118,655.7966 Q632.4163,655.6501 632.0061,655.6501 Q631.5081,655.6501 631.0833,655.8698 Q630.6585,656.0896 630.3362,656.5876 Q630.014,657.071 630.014,657.7595 L630.014,658.4919 Q630.014,659.2976 630.5999,659.8396 Q631.2005,660.3815 632.2405,660.3815 Q632.8704,660.3815 633.3099,660.2204 Q633.5589,660.1179 633.8372,659.8249 Q634.013,659.6491 634.1155,659.6052 Q634.2181,659.5466 634.3353,659.5466 Q634.5696,659.5466 634.7308,659.7224 Q634.9065,659.8835 634.9065,660.1179 Q634.9065,660.3522 634.6722,660.6159 Q634.3353,660.9968 633.8079,661.2165 Q633.1048,661.5095 632.2552,661.5095 Q631.2444,661.5095 630.4534,661.0993 Q629.7942,660.7771 629.3401,660.0593 Q628.886,659.3415 628.886,658.5065 L628.886,657.7448 Q628.886,656.8659 629.2962,656.1042 Q629.7063,655.3425 630.4241,654.9323 Q631.1565,654.5222 631.9622,654.5222 Q632.4603,654.5222 632.8851,654.6394 Q633.3099,654.7419 633.6761,654.9763 Z " fill="#2E2E2E"/><text fill="#555555" font-family="Segoe Print" font-size="10.3125" lengthAdjust="spacing" textLength="49.08" x="654.7845" y="661.4781">Password</text><path d="M495,675.959 L495,676.2217 L504.459,675.4411 L513.918,676.2006 L523.377,676.4586 L532.836,675.0673 L542.295,675.8619 L551.754,675.4259 L561.213,675.4796 L570.672,675.8738 L580.131,675.0948 L589.59,676.6511 L599.049,675.1712 L608.508,675.7118 L617.967,676.4989 L627.426,675.8518 L636.885,676.0443 L646.344,675.9191 L655.803,676.1822 L665.262,676.2579 L674.721,676.6911 L684.18,676.7978 L693.639,676.8081 L703.098,676.2773 L712.557,676.5385 L722.016,676.8368 L731.475,675.0575 L740.934,676.8072 L750.393,675.5884 L759.852,676.6263 L769.311,675.3402 L778.77,675.8734 L788.229,676.886 L797.688,675.8981 L807.147,676.0906 L816.606,676.3823 L826.065,676.4793 L835.524,675.959" fill="#F8F9FA" style="stroke:#6C757D;stroke-width:0.9375;"/><polygon fill="none" points="501.5625,691.9759,501.5625,692.0416,502.6875,691.8465,503.8125,692.0363,504.9375,692.1008,506.0625,691.753,507.1875,691.9759,507.1632,691.9759,507.0542,693.1009,507.0677,694.2259,507.1662,695.3509,506.9714,696.4759,507.1875,697.6009,507.1875,697.7739,506.0625,697.404,504.9375,697.5391,503.8125,697.7359,502.6875,697.5741,501.5625,697.6009,501.5838,697.6009,501.5525,696.4759,501.6183,695.3509,501.6372,694.2259,501.7455,693.1009,501.5625,691.9759" style="stroke:#2E2E2E;stroke-width:0.9375;"/><text fill="#555555" font-family="Segoe Print" font-size="10.3125" lengthAdjust="spacing" textLength="75.1282" x="516.5625" y="697.262">hashed: String</text><path d="M495,710.8054 L495,711.0681 L504.459,710.2875 L513.918,711.047 L523.377,711.305 L532.836,709.9136 L542.295,710.7082 L551.754,710.2722 L561.213,710.326 L570.672,710.7202 L580.131,709.9411 L589.59,711.4974 L599.049,710.0175 L608.508,710.5582 L617.967,711.3453 L627.426,710.6981 L636.885,710.8907 L646.344,710.7654 L655.803,711.0285 L665.262,711.1043 L674.721,711.5375 L684.18,711.6442 L693.639,711.6544 L703.098,711.1236 L712.557,711.3848 L722.016,711.6831 L731.475,709.9039 L740.934,711.6535 L750.393,710.4347 L759.852,711.4726 L769.311,710.1866 L778.77,710.7197 L788.229,711.7324 L797.688,710.7444 L807.147,710.937 L816.606,711.2286 L826.065,711.3256 L835.524,710.8054" fill="#F8F9FA" style="stroke:#6C757D;stroke-width:0.9375;"/><polygon fill="none" points="507.203,730.3189,506.7908,730.8822,506.3031,731.7073,505.6058,732.2633,504.8729,732.5674,504.2886,732.5937,503.5376,732.2135,502.8289,731.965,502.2911,731.4607,502.0089,730.8832,501.8416,730.4234,501.6777,729.8229,501.4116,729.3061,501.6161,728.8015,501.7952,728.2488,502.4674,727.8116,502.9404,727.2444,503.5257,727.0561,504.2216,726.8939,505.114,726.9903,505.6028,727.2208,506.1711,727.3253,506.8621,728.0332,507.1029,728.7805,507.2076,729.2905,507.0891,730.1308" style="stroke:#2E2E2E;stroke-width:0.9375;"/><text fill="#555555" font-family="Segoe Print" font-size="10.3125" lengthAdjust="spacing" textLength="309.5865" x="516.5625" y="732.1083">valueOf(raw: String, encoder: PasswordEncoder): Password</text><polygon fill="none" points="507.203,757.6652,506.7908,758.2285,506.3031,759.0536,505.6058,759.6096,504.8729,759.9137,504.2886,759.9401,503.5376,759.5598,502.8289,759.3114,502.2911,758.807,502.0089,758.2296,501.8416,757.7698,501.6777,757.1692,501.4116,756.6524,501.6161,756.1479,501.7952,755.5951,502.4674,755.158,502.9404,754.5908,503.5257,754.4024,504.2216,754.2402,505.114,754.3366,505.6028,754.5671,506.1711,754.6716,506.8621,755.3795,507.1029,756.1269,507.2076,756.6368,507.0891,757.4771" style="stroke:#2E2E2E;stroke-width:0.9375;"/><text fill="#555555" font-family="Segoe Print" font-size="10.3125" lengthAdjust="spacing" textLength="303.8663" x="516.5625" y="759.4547">matches(raw: String, encoder: PasswordEncoder): boolean</text></g><!--class AppRole--><g class="entity" data-entity="AppRole" data-source-line="47" data-uid="ent0007" id="entity_AppRole"><polygon fill="#F8F9FA" points="872.8125,639.2377,872.8125,639.4347,882.1139,638.8492,891.4152,639.4189,900.7166,639.6124,910.0179,638.5689,919.3193,639.1648,928.6207,638.8378,937.922,638.8781,947.2234,639.1738,956.5247,638.5895,965.8261,639.7567,975.1275,638.6468,984.4288,639.0523,993.7302,639.6426,1003.0316,639.1573,1012.3329,639.2377,1012.3411,639.2574,1012.8594,639.4481,1013.4149,639.7286,1013.9525,639.9657,1014.5243,640.2854,1014.9846,640.336,1015.1783,640.4163,1015.4003,640.9476,1015.4974,641.4271,1015.7774,641.9825,1016.066,642.5413,1016.0829,642.9877,1015.4068,642.9877,1016.719,652.7,1015.8049,662.4123,1016.5834,672.1247,1015.6188,681.837,1016.0187,691.5494,1016.7782,701.2617,1016.0372,710.974,1016.1816,720.6864,1016.4004,730.3987,1016.4731,740.111,1016.0793,749.8234,1016.3522,759.5357,1016.0829,769.248,1015.9177,769.1796,1015.9454,769.8124,1015.8018,770.3743,1015.5522,770.8922,1015.3812,771.4427,1014.9846,771.8997,1014.9268,771.7602,1014.3762,771.9311,1013.8496,772.1596,1013.3865,772.5417,1012.8397,772.7216,1012.3329,772.998,1012.3329,773.6369,1003.0316,772.8343,993.7302,772.6764,984.4288,773.212,975.1275,772.3729,965.8261,772.5114,956.5247,773.6064,947.2234,773.4065,937.922,773.6866,928.6207,772.6964,919.3193,773.2973,910.0179,773.5516,900.7166,772.5552,891.4152,772.9082,882.1139,773.1162,872.8125,772.998,872.8904,773.1862,872.2817,772.7772,871.8072,772.6923,871.1553,772.1792,870.6102,771.9238,870.1608,771.8997,870.3062,771.9599,869.7342,771.2836,869.8685,770.8999,869.5615,770.3334,869.2048,769.7463,869.0625,769.248,868.7308,769.248,869.4926,759.5357,868.7819,749.8234,869.6174,740.111,868.5443,730.3987,869.6413,720.6864,869.5165,710.974,869.2922,701.2617,869.1068,691.5494,869.7437,681.837,869.6377,672.1247,869.2212,662.4123,869.3139,652.7,869.0625,642.9877,869.0249,642.9721,869.489,642.543,869.5466,641.9455,869.7713,641.4173,869.7655,640.7936,870.1608,640.336,870.1124,640.219,870.7547,640.2696,871.2729,640.0208,871.7467,639.6646,872.2436,639.3643,872.8125,639.2377" style="stroke:#6C757D;stroke-width:0.9375;"/><polygon fill="none" points="922.0558,659.8787,920.6816,661.7564,919.0562,664.5066,916.7315,666.36,914.2887,667.3736,912.3409,667.4615,909.8376,666.194,907.4755,665.3659,905.6826,663.6846,904.7421,661.7598,904.1844,660.2272,903.638,658.2254,902.7512,656.5027,903.4327,654.8208,904.0298,652.9784,906.2705,651.5212,907.8469,649.6305,909.7981,649.0027,912.1178,648.462,915.0924,648.7833,916.7217,649.5516,918.616,649.8999,920.9192,652.2597,921.7221,654.7509,922.071,656.4506,921.6758,659.2516" style="stroke:#E6AE06;stroke-width:0.9375;"/><path d="M912.5118,658.5651 L912.5118,660.2204 L915.3829,660.2204 L915.3829,659.6052 Q915.3829,659.2097 915.5294,659.0339 Q915.6905,658.8581 915.9396,658.8581 Q916.1886,658.8581 916.3497,659.0339 Q916.5108,659.2097 916.5108,659.6052 L916.5108,661.3483 L911.2081,661.3483 Q910.798,661.3483 910.6222,661.2019 Q910.4464,661.0407 910.4464,660.7771 Q910.4464,660.528 910.6222,660.3815 Q910.798,660.2204 911.2081,660.2204 L911.3839,660.2204 L911.3839,655.8112 L911.2081,655.8112 Q910.798,655.8112 910.6222,655.6647 Q910.4464,655.5036 910.4464,655.2546 Q910.4464,654.9909 910.6222,654.8444 Q910.798,654.6833 911.2081,654.6833 L916.2618,654.6833 L916.2618,656.3972 Q916.2618,656.8073 916.1007,656.9831 Q915.9542,657.1442 915.6905,657.1442 Q915.4415,657.1442 915.2804,656.9831 Q915.1339,656.8073 915.1339,656.3972 L915.1339,655.8112 L912.5118,655.8112 L912.5118,657.4372 L913.4933,657.4372 Q913.4933,656.9978 913.5812,656.8806 Q913.7423,656.6022 914.0646,656.6022 Q914.3136,656.6022 914.4601,656.778 Q914.6212,656.9538 914.6212,657.364 L914.6212,658.653 Q914.6212,659.0192 914.5333,659.1511 Q914.3575,659.4147 914.0646,659.4147 Q913.7423,659.4147 913.5812,659.1364 Q913.4933,659.0192 913.4933,658.5651 L912.5118,658.5651 Z " fill="#2E2E2E"/><text fill="#555555" font-family="Segoe Print" font-size="10.3125" lengthAdjust="spacing" textLength="43.0124" x="935.129" y="661.4781">AppRole</text><path d="M870,675.959 L870,676.2217 L879.6764,675.4411 L889.3527,676.2006 L899.0291,676.4586 L908.7054,675.0673 L918.3818,675.8619 L928.0582,675.4259 L937.7345,675.4796 L947.4109,675.8738 L957.0872,675.0948 L966.7636,676.6511 L976.44,675.1712 L986.1163,675.7118 L995.7927,676.4989 L1005.4691,675.8518 L1015.1454,675.959" fill="#F8F9FA" style="stroke:#6C757D;stroke-width:0.9375;"/><text fill="#555555" font-family="Segoe Print" font-size="10.3125" lengthAdjust="spacing" textLength="29.1499" x="879.375" y="697.262">USER</text><text fill="#555555" font-family="Segoe Print" font-size="10.3125" lengthAdjust="spacing" textLength="37.5691" x="879.375" y="724.6083">ADMIN</text><path d="M870,738.1517 L870,738.4144 L879.6764,737.6338 L889.3527,738.3933 L899.0291,738.6513 L908.7054,737.26 L918.3818,738.0546 L928.0582,737.6186 L937.7345,737.6723 L947.4109,738.0665 L957.0872,737.2875 L966.7636,738.8438 L976.44,737.3639 L986.1163,737.9045 L995.7927,738.6916 L1005.4691,738.0445 L1015.1454,738.1517" fill="#F8F9FA" style="stroke:#6C757D;stroke-width:0.9375;"/><polygon fill="none" points="882.203,757.6652,881.7908,758.2285,881.3031,759.0536,880.6058,759.6096,879.8729,759.9137,879.2886,759.9401,878.5376,759.5598,877.8289,759.3114,877.2911,758.807,877.0089,758.2296,876.8416,757.7698,876.6777,757.1692,876.4116,756.6524,876.6161,756.1479,876.7952,755.5951,877.4674,755.158,877.9404,754.5908,878.5257,754.4024,879.2216,754.2402,880.114,754.3366,880.6028,754.5671,881.1711,754.6716,881.8621,755.3795,882.1029,756.1269,882.2076,756.6368,882.0891,757.4771" style="stroke:#2E2E2E;stroke-width:0.9375;"/><text fill="#555555" font-family="Segoe Print" font-size="10.3125" lengthAdjust="spacing" textLength="114.2079" x="891.5625" y="759.4547">getAuthority(): String</text></g><g class="entity" data-entity="GMN14" data-source-line="60" data-uid="ent0015" id="entity_GMN14"><path d="M688.5938,150.8002 L688.7689,150.8002 L688.2485,157.0814 L688.7548,163.3627 L688.9268,169.6439 L687.9993,175.9252 L688.5938,182.2064 L688.5865,182.1421 L681.9294,182.6033 L675.309,183.3889 L668.7142,184.4 L662.0314,184.6339 L655.4719,185.9564 L655.5238,186.4149 L662.0372,186.1845 L668.7021,187.2927 L675.3855,188.5641 L681.9613,188.8854 L688.5938,189.7064 L688.6506,189.7064 L688.5671,195.9382 L688.7425,202.17 L688.793,208.4019 L689.0818,214.6337 L688.5938,220.8655 L692.3438,224.6155 L692.3438,226.2931 L701.5869,226.3136 L710.8301,225.252 L720.0732,225.7744 L729.3164,226.3711 L738.5596,222.8125 L747.8027,226.3118 L757.0459,223.8742 L766.2891,225.95 L775.5322,223.3779 L784.7754,224.4442 L794.0186,226.4695 L803.2617,224.4936 L812.5049,224.8787 L821.748,225.462 L830.9912,225.6561 L840.2344,224.6057 L849.4775,224.6155 L853.2275,220.8655 L853.9456,220.8655 L851.7965,211.6597 L853.9385,202.454 L854.598,193.2482 L854.3389,184.0424 L854.7601,174.8367 L852.0198,165.6309 L853.2275,156.4252 L852.8432,156.0409 L850.9864,154.184 L849.4428,152.6405 L847.4867,150.6844 L846.1291,149.3267 L843.8525,147.0502 L843.8525,146.6135 L834.3832,146.1925 L824.9139,147.6208 L815.4446,145.3831 L805.9753,145.7524 L796.506,148.6725 L787.0367,148.1393 L777.5674,148.8864 L768.0981,146.2457 L758.6288,147.8482 L749.1595,148.5262 L739.6902,145.8692 L730.2209,146.8105 L720.7516,147.3651 L711.2823,148.6796 L701.813,147.0397 L692.3438,147.0502 L688.5938,150.8002" fill="#E8F4FD" style="stroke:#2C5282;stroke-width:0.9375;"/><path d="M843.8525,147.0502 L844.0277,147.0502 L843.5073,148.5502 L844.0136,150.0502 L844.1856,151.5502 L843.258,153.0502 L843.8525,154.5502 L845.7275,156.4252 L845.7275,156.3604 L847.2275,156.0698 L848.7275,156.1056 L850.2275,156.3684 L851.7275,155.849 L853.2275,156.4252 L853.5538,156.7514 L850.9811,154.1788 L849.361,152.5586 L847.8571,151.0547 L845.677,148.8746 L843.8525,147.0502" fill="#E8F4FD" style="stroke:#2C5282;stroke-width:0.9375;"/><text fill="#1A202C" font-family="Segoe Print" font-size="11.25" font-weight="bold" lengthAdjust="spacing" textLength="111.665" x="698.9063" y="170.4602">Polymorphic Design</text><text fill="#1A202C" font-family="Segoe Print" font-size="11.25" lengthAdjust="spacing" textLength="135.5713" x="698.9063" y="190.0653">Generic interface allows</text><text fill="#1A202C" font-family="Segoe Print" font-size="11.25" lengthAdjust="spacing" textLength="100.5084" x="698.9063" y="209.6704">custom role types</text></g><g class="entity" data-entity="GMN17" data-source-line="66" data-uid="ent0018" id="entity_GMN17"><path d="M39.8438,834.2377 L40.3692,834.2377 L38.8079,844.3297 L40.327,854.4218 L40.8429,864.5138 L38.0603,874.6058 L39.8438,884.6979 L43.5938,888.4479 L43.5938,888.2536 L53.1877,887.3816 L62.7816,887.4891 L72.3755,888.2775 L81.9694,886.7195 L91.5633,889.832 L101.1572,886.8722 L110.7511,887.9535 L120.3451,889.5277 L129.939,888.2334 L139.5329,888.6185 L149.1268,888.368 L158.7207,888.8942 L168.3146,889.0457 L177.9085,889.9121 L187.5024,890.1255 L197.0964,890.146 L206.6903,889.0844 L216.2842,888.4479 L220.0342,884.6979 L221.1931,884.6979 L221.7898,875.7308 L218.2312,866.7638 L221.7305,857.7968 L219.2929,848.8297 L220.0342,839.8627 L220.3487,840.1772 L217.8675,837.696 L216.2438,836.0723 L214.8462,834.6747 L212.5055,832.334 L210.6592,830.4877 L210.6592,830.7509 L201.026,831.3342 L191.3928,831.5282 L181.7596,830.4779 L172.1265,831.2057 L162.4933,829.0566 L152.8601,831.1986 L143.2269,831.8582 L133.5938,830.4877 L134.7027,830.5608 L134.498,821.1104 L131.1387,811.452 L130.0918,801.946 L129.5436,792.473 L130.3219,783.0874 L129.8438,773.6189 L129.3535,773.5866 L130.9186,783.2091 L128.158,792.5464 L127.113,801.9969 L127.9132,811.569 L125.0553,820.8999 L126.0938,830.4877 L126.0938,829.1899 L116.9271,832.11 L107.7604,831.5768 L98.5937,832.3239 L89.4271,829.6832 L80.2604,831.2857 L71.0938,831.9637 L61.9271,829.3067 L52.7604,830.248 L43.5938,830.4877 L39.8438,834.2377" fill="#E8F4FD" style="stroke:#2C5282;stroke-width:0.9375;"/><path d="M210.6592,830.4877 L210.8343,830.4877 L210.3139,831.9877 L210.8203,833.4877 L210.9922,834.9877 L210.0647,836.4877 L210.6592,837.9877 L212.5342,839.8627 L212.5342,839.7979 L214.0342,839.5073 L215.5342,839.5431 L217.0342,839.8059 L218.5342,839.2865 L220.0342,839.8627 L220.3604,840.1889 L217.7878,837.6163 L216.1676,835.9961 L214.6637,834.4922 L212.4836,832.3121 L210.6592,830.4877" fill="#E8F4FD" style="stroke:#2C5282;stroke-width:0.9375;"/><text fill="#1A202C" font-family="Segoe Print" font-size="11.25" font-weight="bold" lengthAdjust="spacing" textLength="75.6519" x="50.1563" y="853.8977">Value Objects</text><text fill="#1A202C" font-family="Segoe Print" font-size="11.25" lengthAdjust="spacing" textLength="151.1279" x="50.1563" y="873.5028">Immutable with validation</text></g><!--reverse link AuthUser to User--><g class="link" data-entity-1="AuthUser" data-entity-2="User" data-source-line="53" data-uid="lnk9" id="link_AuthUser_User"><path d="M517.0313,297.4064 L517.1188,297.4064 L516.8586,305.3545 L517.1118,313.3027 L517.1978,321.2508 L516.734,329.1989 L517.0313,337.147" fill="none" style="stroke:#333333;stroke-width:2.8125;stroke-dasharray:7.0,7.0;"/><polygon fill="none" points="517.0313,280.5314,517.0936,280.5522,515.7834,283.8655,514.8386,287.3005,513.7747,290.6959,512.3198,293.9609,511.4063,297.4064,511.4063,297.3821,513.6563,297.2731,515.9063,297.2866,518.1563,297.3851,520.4063,297.1904,522.6563,297.4064,522.8204,297.4611,521.3444,293.9691,520.3476,290.6369,519.4093,287.3241,518.1308,283.8979,517.0313,280.5314" style="stroke:#333333;stroke-width:2.8125;"/></g><!--reverse link User to Username--><g class="link" data-entity-1="User" data-entity-2="Username" data-source-line="54" data-uid="lnk10" id="link_User_Username"><path d="M347.9609,559.3024 L348.1071,559.5207 L339.7291,564.1904 L332.208,570.14 L324.4079,575.6727 L315.6902,579.835 L308.1886,585.8136 L300.0024,590.7698 L292.0887,596.1328 L284.3644,601.7788 L275.9873,606.4498 L268.9095,613.0614 L260.1425,617.1501 L252.4996,622.9177 L244.9939,628.8902 L236.6902,633.6708 L228.8063,639.0783" fill="none" style="stroke:#333333;stroke-width:2.8125;"/><polygon fill="#333333" points="357.3094,553.0439,357.3095,553.1096,355.957,552.9171,354.6053,553.1096,353.2534,553.1767,351.9006,552.8315,350.549,553.057,350.5265,553.0477,349.9082,554.2551,349.403,555.5093,348.9765,556.7961,348.2789,557.9706,347.9609,559.3024,347.9612,559.4754,349.3126,559.1028,350.6649,559.2354,352.0174,559.4295,353.3692,559.2651,354.7213,559.2893,354.741,559.2975,355.2297,558.0364,355.8081,556.8125,356.3432,555.5707,356.9608,554.3631,357.3094,553.0439" style="stroke:#333333;stroke-width:2.8125;"/><text fill="#2E2E2E" font-family="Segoe Print" font-size="11.25" lengthAdjust="spacing" textLength="46.8842" x="318.2813" y="600.7727">contains</text></g><!--reverse link User to Email--><g class="link" data-entity-1="User" data-entity-2="Email" data-source-line="55" data-uid="lnk11" id="link_User_Email"><path d="M450.3448,562.8124 L450.5729,562.9428 L445.0527,571.0295 L440.8696,579.8803 L436.2511,588.4823 L430.2006,596.2659 L426.0481,605.1342 L420.8271,613.3918 L416.0312,621.8925 L411.531,630.562 L406.7625,639.0783" fill="none" style="stroke:#333333;stroke-width:2.8125;"/><polygon fill="#333333" points="455.925,553.0439,455.9544,553.1027,454.6578,553.533,453.5335,554.3076,452.3531,554.9701,450.9883,555.2639,449.8787,556.0681,449.8545,556.0664,449.839,557.4078,449.9456,558.7576,450.1371,560.1132,450.036,561.4487,450.3448,562.8124,450.4222,562.9672,451.4659,562.0314,452.7357,561.5475,454.0329,561.1186,455.1698,560.3691,456.3911,559.7882,456.4123,559.7897,456.2879,558.4387,456.2603,557.0944,456.186,555.7468,456.2008,554.4054,455.925,553.0439" style="stroke:#333333;stroke-width:2.8125;"/><text fill="#2E2E2E" font-family="Segoe Print" font-size="11.25" lengthAdjust="spacing" textLength="46.8842" x="444.8438" y="600.7727">contains</text></g><!--reverse link User to Password--><g class="link" data-entity-1="User" data-entity-2="Password" data-source-line="56" data-uid="lnk12" id="link_User_Password"><path d="M583.7177,562.8124 L583.9458,562.9428 L588.1105,571.0295 L593.6124,579.8803 L598.6789,588.4823 L602.3134,596.2659 L607.8458,605.1342 L612.3097,613.3918 L617.1988,621.8925 L622.3836,630.562 L627.3,639.0783" fill="none" style="stroke:#333333;stroke-width:2.8125;"/><polygon fill="#333333" points="578.1375,553.0439,578.203,553.0484,577.9151,554.3839,578.0113,555.7458,577.9825,557.0991,577.5422,558.424,577.6714,559.7882,577.6606,559.7665,578.8211,560.2739,580.0363,560.8907,581.2897,561.5837,582.4118,562.0144,583.7177,562.8124,583.8903,562.8244,583.6144,561.45,583.8425,560.1104,584.132,558.7751,584.0638,557.4151,584.1838,556.0681,584.1933,556.0872,582.9701,555.4543,581.7902,554.9083,580.5894,554.3204,579.4286,553.8125,578.1375,553.0439" style="stroke:#333333;stroke-width:2.8125;"/><text fill="#2E2E2E" font-family="Segoe Print" font-size="11.25" lengthAdjust="spacing" textLength="46.8842" x="614.5313" y="600.7727">contains</text></g><!--reverse link User to AppRole--><g class="link" data-entity-1="User" data-entity-2="AppRole" data-source-line="57" data-uid="lnk13" id="link_User_AppRole"><path d="M706.245,550.0653 L706.3769,550.2925 L713.4783,553.9695 L721.3531,558.9783 L728.9761,563.5535 L735.7708,566.7024 L743.712,571.8255 L743.6955,571.7977 L747.2679,573.8348 L750.9236,576.0124 L754.6372,578.2876 L758.1513,580.2264 L761.9448,582.6363 L762.0638,582.8339 L765.4194,584.5859 L769.1226,586.9148 L772.8681,589.314 L776.3669,591.3038 L779.9955,593.5089 L780.0104,593.5331 L783.5851,595.7006 L787.2275,597.9785 L790.8372,600.2031 L794.5091,602.5293 L797.9782,604.5243 L798.1261,604.7615 L801.7336,607.0123 L805.2457,609.11 L808.8974,611.4317 L812.5557,613.764 L816.0066,615.7635 L815.8456,615.5098 L819.7957,618.311 L823.2156,620.2769 L827.0386,622.8778 L830.4465,624.8247 L834.1947,627.3076 L834.1792,627.2837 L838.0547,629.9532 L841.5683,632.0626 L845.2954,634.5025 L849.0405,636.9702 L852.6563,639.2377 L852.7531,639.3816 L855.916,641.4301 L859.2443,643.7245 L862.305,645.621 L865.7649,648.111 L868.9594,650.2064" fill="none" style="stroke:#333333;stroke-width:2.8125;"/><polygon fill="none" points="696.4875,544.4658,696.5463,544.4951,696.974,545.6186,697.7465,546.9136,698.4067,548.1528,698.6977,549.2082,699.4998,550.518,699.4981,550.4938,700.8399,550.2945,702.1898,550.2173,703.5455,550.2251,704.8815,549.9402,706.245,550.0653,706.3999,550.1424,705.4662,548.7671,704.9848,547.6168,704.5585,546.4941,703.8112,545.2115,703.2327,544.013,703.2342,544.0343,701.883,544.0936,700.5384,544.2498,699.1906,544.3593,697.8488,544.5579,696.4875,544.4658" style="stroke:#333333;stroke-width:2.8125;"/><text fill="#2E2E2E" font-family="Segoe Print" font-size="11.25" lengthAdjust="spacing" textLength="55.1898" x="814.2188" y="600.7727">has many</text></g><!--SRC=[ZLJlRzem4FsUl-BMVG7QL1jQLnPLI0n8XRIk5QpxRfA3U2HsP3j3qRR_VUVyXZ1foPValVExvpkVtvW84mHzG1D4kIip4tE1ZZvmaJB54jYouB1NCXFXNCPImLj_QTzEH10phJ_tmYR-9t_M2vCgH5M5V9pVtzqlEY526km9BIV-1xyNrTKPp-_6a_5PX2-5gVZti_6xyTnn33Snmfe7J8KIPfc9O6EOCgZ0XOLC61Vm94EC7OSBGdSiGBYoSQyQrSEtwHKm3VK__7A0dkizcbKu67hmHOfz0or9BRRenYZUmUrAmHAyGArbZBh0qL2o1hS9fUA6bonjAiR0S2aU7XKZds4Ta4-TFuvJr1aw3bqUTiovMUN0WzfBYQDrx45Xl4HI4ZfIeJrugRvAN5cZfSrPcbhRbLahEEZhtq1N-mRwkiDJutPHRRwLwvRh9uipVDuDpjdXsQx-KV8cM-6eJbMvl9JdX1fsgtIfsOrylRywGyHqXE7b58eTQu8A9W8wYAgjqB84XcUzk4uOpIqTZFzTlPNKBYQiHHHP0bK3AuElc-Mw-9WjdbPVUoSmFzrZSSPki_JszxIPYX8SkMxRI0y2caKQBjsIPTqlCKt9pab9PEtM0wea94paZcE77HJVHmRahftE-ju068rUP9mdKgKH3s21ck_5Q4J48mfK1BN3pk9O7ZLHGQQDJC2UT31vYfgg5HRtIfLmAuqDe8pDFhiPlzkcmlFs1qsgBfAjaYGpR4jwHquN3tMTXynESQly5m00]--></g></svg>