<svg xmlns="http://www.w3.org/2000/svg" contentStyleType="text/css" data-diagram-type="CLASS" height="926.0417px"
     preserveAspectRatio="none" style="width:626px;height:926px;background:#FEFEFE;" version="1.1" viewBox="0 0 626 926"
     width="626.0417px" zoomAndPan="magnify"><title>Ricardo Auth Starter - Service Architecture (v1.1.0)</title><defs/><g><rect fill="#FEFEFE" height="926.0417" style="stroke:none;stroke-width:1.0417;" width="626.0417" x="0" y="0"/><g class="title" data-source-line="10"><polygon fill="none" points="25,20.8333,25,21.0523,35.4275,20.4017,45.855,21.0347,56.2825,21.2497,66.71,20.0902,77.1375,20.7524,87.565,20.3891,97.9925,20.4339,108.42,20.7623,118.8475,20.1132,129.2751,21.41,139.7026,20.1768,150.1301,20.6273,160.5576,21.2833,170.9851,20.744,181.4126,20.9044,191.8401,20.8001,202.2676,21.0193,212.6951,21.0824,223.1226,21.4434,233.5501,21.5323,243.9776,21.5409,254.4051,21.0986,264.8326,21.3162,275.2601,21.5648,285.6876,20.0821,296.1151,21.5401,306.5426,20.5245,316.9701,21.3894,327.3976,20.3177,337.8252,20.762,348.2527,21.6058,358.6802,20.7826,369.1077,20.943,379.5352,21.1861,389.9627,21.2669,400.3902,20.8293,410.8177,21.1325,421.2452,20.2371,431.6727,21.1296,442.1002,21.4044,452.5277,21.2964,462.9552,21.4719,473.3827,20.3301,483.8102,20.154,494.2377,20.186,504.6652,20.772,515.0927,20.6286,525.5202,21.5431,535.9477,20.6514,546.3753,20.476,556.8028,21.0711,567.2303,20.1387,577.6578,20.2926,588.0853,21.5093,598.5128,20.8333,598.5707,20.9731,599.1996,21.313,599.6485,21.2183,600.323,21.668,600.9483,21.999,601.4591,22.0537,601.3075,21.991,601.6724,22.6302,601.9876,23.249,602.4004,23.9081,602.434,24.4102,602.6794,25,603.1613,25,602.1026,35.1778,601.974,45.3556,603.204,55.5334,601.9326,65.7113,602.6794,75.8891,602.8427,75.9567,602.5017,76.5058,602.1053,77.032,601.8337,77.6098,601.8503,78.3071,601.4591,78.8354,601.4193,78.7393,600.9484,79.2693,600.2071,79.1462,599.7733,79.7657,599.1664,79.967,598.5128,80.0557,598.5128,80.3109,588.0853,80.1049,577.6578,80.8126,567.2303,80.6949,556.8028,80.2321,546.3753,80.3351,535.9477,79.9201,525.5202,80.802,515.0927,80.2171,504.6652,80.2355,494.2377,79.422,483.8102,79.6336,473.3827,80.6086,462.9552,80.5034,452.5277,80.011,442.1002,79.7202,431.6727,79.8277,421.2452,79.341,410.8177,80.4878,400.3902,80.8261,389.9627,80.6041,379.5352,80.7796,369.1077,79.9133,358.6802,80.1466,348.2527,79.652,337.8252,80.3516,327.3976,80.3128,316.9701,80.6312,306.5426,79.8165,296.1151,79.9157,285.6876,80.5177,275.2601,80.6467,264.8326,79.5219,254.4051,79.8538,243.9776,80.2112,233.5501,79.4194,223.1226,80.4239,212.6951,80.3245,202.2676,79.9508,191.8401,80.2039,181.4126,80.8148,170.9851,79.7298,160.5576,80.3839,150.1301,80.3533,139.7026,80.1763,129.2751,80.2025,118.8475,80.174,108.42,79.4056,97.9925,79.6382,87.565,79.575,77.1375,80.1222,66.71,80.1475,56.2825,80.2242,45.855,79.7526,35.4275,79.9854,25,80.0557,24.984,80.0172,24.4874,79.9967,23.8782,79.7044,23.1677,79.1678,22.6333,79.056,22.0537,78.8354,21.8686,78.7587,21.9022,78.2844,21.7608,77.7377,21.4962,77.1399,20.9377,76.4205,20.8333,75.8891,21.3166,75.8891,20.0596,65.7113,21.0418,55.5334,20.5215,45.3556,20.9341,35.1778,20.8333,25,20.9104,25.0319,21.2289,24.4735,21.0905,23.7258,21.7181,23.2954,21.8668,22.6667,22.0537,22.0537,22.1009,22.1677,22.7423,22.0495,23.233,21.5673,23.8448,21.3777,24.4391,21.1459,25,20.8333" style="stroke:#4D4D4D;stroke-width:1.0417;"/><text fill="#2E2E2E" font-family="Segoe Print" font-size="20.8333" font-weight="bold" lengthAdjust="spacing" textLength="558.9294" x="32.2917" y="58.2825">Ricardo Auth Starter - Service Architecture (v1.1.0)</text></g><!--class UserService--><g class="entity" data-entity="UserService" data-source-line="12" data-uid="ent0002" id="entity_UserService"><polygon fill="#F8F9FA" points="370.9452,400.8891,370.9452,401.108,381.3351,400.4575,391.725,401.0904,402.1149,401.3054,412.5048,400.146,422.8947,400.8081,433.2846,400.4448,443.6745,400.4896,454.0644,400.8181,464.4543,400.1689,474.8441,401.4658,485.234,400.2325,495.6239,400.6831,506.0138,401.339,516.4037,400.8891,516.3923,400.8616,517.002,401.155,517.578,401.367,518.1952,401.6786,518.7925,401.9421,519.35,402.1095,519.5379,402.1873,519.8093,402.7879,520.056,403.3782,520.1639,403.9111,520.475,404.5281,520.5704,405.0557,521.3019,405.0557,519.8191,414.8827,521.2772,424.7097,520.2615,434.5366,521.1264,444.3636,520.5704,454.1906,520.4116,454.1248,520.3043,454.7707,520.3201,455.4676,519.8225,455.9519,519.6278,456.5616,519.35,457.1369,519.395,457.2455,518.816,457.5145,518.171,457.6238,517.6204,457.9612,516.9169,457.9295,516.4037,458.3572,516.4037,458.6535,506.0138,458.9283,495.6239,458.8203,485.234,458.9958,474.8441,457.854,464.4543,457.6779,454.0644,457.7099,443.6745,458.2959,433.2846,458.1525,422.8947,459.067,412.5048,458.1753,402.1149,457.9999,391.725,458.595,381.3351,457.6626,370.9452,458.3572,370.8763,458.1907,370.4422,458.3213,369.8246,458.0088,369.2751,457.8606,368.5454,457.2777,367.999,457.1369,368.1013,457.1793,367.9443,456.626,367.3593,455.8956,367.236,455.3563,367.0631,454.7966,366.7786,454.1906,367.4575,454.1906,366.7742,444.3636,367.2604,434.5366,366.2017,424.7097,366.0731,414.8827,366.7786,405.0557,366.9401,405.1227,366.7927,404.3712,367.43,403.9449,367.5771,403.3154,367.6689,402.6631,367.999,402.1095,367.9519,401.996,368.6492,402.0126,369.1377,401.5253,369.8454,401.5671,370.2825,400.9558,370.9452,400.8891" style="stroke:#6C757D;stroke-width:1.0417;"/><polygon fill="none" points="391.8361,423.8236,390.3092,425.9099,388.5032,428.9657,385.9202,431.025,383.206,432.1512,381.0418,432.2489,378.2603,430.8405,375.6357,429.9204,373.6437,428.0523,372.5987,425.9137,371.979,424.2108,371.3719,421.9865,370.3865,420.0725,371.1437,418.2037,371.8072,416.1565,374.2968,414.5374,376.0484,412.4367,378.2164,411.7391,380.7938,411.1384,384.099,411.4953,385.9093,412.349,388.0141,412.736,390.5732,415.358,391.4654,418.126,391.853,420.0146,391.4139,423.1268" style="stroke:#C6303E;stroke-width:1.0417;"/><path d="M382.6152,419.3041 L382.6152,424.2032 L383.8847,424.2032 Q384.3241,424.2032 384.5194,424.3823 Q384.7148,424.545 384.7148,424.838 Q384.7148,425.1147 384.5194,425.2937 Q384.3241,425.4565 383.8847,425.4565 L380.0924,425.4565 Q379.6529,425.4565 379.4576,425.2937 Q379.2623,425.1147 379.2623,424.8217 Q379.2623,424.545 379.4576,424.3823 Q379.6529,424.2032 380.0924,424.2032 L381.3619,424.2032 L381.3619,419.3041 L380.0924,419.3041 Q379.6529,419.3041 379.4576,419.1414 Q379.2623,418.9624 379.2623,418.6857 Q379.2623,418.3927 379.4576,418.2299 Q379.6529,418.0509 380.0924,418.0509 L383.8847,418.0509 Q384.3241,418.0509 384.5194,418.2299 Q384.7148,418.3927 384.7148,418.6857 Q384.7148,418.9624 384.5194,419.1414 Q384.3241,419.3041 383.8847,419.3041 L382.6152,419.3041 Z " fill="#2E2E2E"/><text fill="#555555" font-family="Segoe Print" font-size="11.4583" font-style="italic" lengthAdjust="spacing" textLength="65.9805" x="400.1119" y="425.6007">UserService</text><polygon fill="#F8F9FA" points="479.6341,397.7641,479.6341,397.8371,488.4464,397.6202,497.2586,397.8312,506.0709,397.9029,514.8831,397.5164,523.6954,397.7641,523.6684,397.7641,523.5473,404.6208,523.5622,411.4775,523.6717,418.3341,523.4553,425.1908,523.6954,432.0475,523.6954,432.2398,514.8831,431.8287,506.0709,431.9789,497.2586,432.1975,488.4464,432.0177,479.6341,432.0475,479.6578,432.0475,479.623,425.1908,479.6961,418.3341,479.7171,411.4775,479.8375,404.6208,479.6341,397.7641" style="stroke:#6C757D;stroke-width:1.0417;stroke-dasharray:2.0,2.0;"/><text fill="#555555" font-family="Segoe Print" font-size="12.5" font-style="italic" lengthAdjust="spacing" textLength="31.5613" x="485.8841" y="419.6086">T, ID</text><path d="M367.8202,441.6906 L367.8202,441.9825 L377.9341,441.1151 L388.048,441.959 L398.1619,442.2457 L408.2758,440.6997 L418.3897,441.5826 L428.5036,441.0982 L438.6175,441.1579 L448.7314,441.5959 L458.8453,440.7303 L468.9592,442.4595 L479.0731,440.8152 L489.187,441.4159 L499.3009,442.2905 L509.4148,441.5714 L519.5287,441.6906" fill="#F8F9FA" style="stroke:#6C757D;stroke-width:1.0417;"/><path d="M367.8202,450.0239 L367.8202,450.3158 L377.9341,449.4485 L388.048,450.2924 L398.1619,450.579 L408.2758,449.0331 L418.3897,449.916 L428.5036,449.4316 L438.6175,449.4913 L448.7314,449.9292 L458.8453,449.0637 L468.9592,450.7929 L479.0731,449.1485 L489.187,449.7492 L499.3009,450.6238 L509.4148,449.9048 L519.5287,450.0239" fill="#F8F9FA" style="stroke:#6C757D;stroke-width:1.0417;"/></g><!--class JwtService--><g class="entity" data-entity="JwtService" data-source-line="13" data-uid="ent0003" id="entity_JwtService"><polygon fill="#F8F9FA" points="229.2786,400.8891,229.2786,401.108,239.9535,400.4575,250.6284,401.0904,261.3034,401.3054,271.9783,400.146,282.6532,400.8081,293.3282,400.4448,304.0031,400.4896,314.6781,400.8181,325.353,400.8891,325.2611,400.6673,326.0158,401.3108,326.4477,401.175,327.0945,401.5579,327.7674,402.004,328.2993,402.1095,328.2717,402.0981,328.5652,402.7078,328.7772,403.2837,329.0888,403.901,329.3523,404.4983,329.5197,405.0557,330.1297,405.0557,330.2187,414.8827,330.2272,424.7097,329.7849,434.5366,330.0026,444.3636,329.5197,454.1906,329.7449,454.2839,329.0442,454.684,329.2492,455.4592,328.6923,455.9189,328.7146,456.6185,328.2993,457.1369,328.2335,456.9781,327.7009,457.359,327.2193,457.8629,326.525,457.8534,325.9562,458.1469,325.353,458.3572,325.353,458.71,314.6781,458.7908,304.0031,458.3532,293.3282,458.6564,282.6532,457.761,271.9783,458.6535,261.3034,458.9283,250.6284,458.8203,239.9535,458.9958,229.2786,458.3572,229.2144,458.2023,228.6026,457.9039,228.0175,457.6697,227.503,457.6061,226.8954,457.3179,226.3323,457.1369,226.5509,457.2274,226.0322,456.5244,225.7341,455.9128,225.6733,455.3994,225.1421,454.6912,225.1119,454.1906,224.5711,454.1906,225.7879,444.3636,225.5657,434.5366,225.877,424.7097,224.7767,414.8827,225.1119,405.0557,225.2143,405.0982,225.5454,404.5449,225.4485,403.8145,225.8134,403.2752,226.1286,402.7155,226.3323,402.1095,226.4189,402.3185,226.921,401.864,227.5723,401.7697,228.0265,401.1996,228.5993,400.9159,229.2786,400.8891" style="stroke:#6C757D;stroke-width:1.0417;"/><polygon fill="none" points="250.1694,423.8236,248.6425,425.9099,246.8365,428.9657,244.2536,431.025,241.5393,432.1512,239.3752,432.2489,236.5936,430.8405,233.9691,429.9204,231.977,428.0523,230.932,425.9137,230.3123,424.2108,229.7052,421.9865,228.7198,420.0725,229.4771,418.2037,230.1405,416.1565,232.6302,414.5374,234.3817,412.4367,236.5498,411.7391,239.1272,411.1384,242.4324,411.4953,244.2427,412.349,246.3474,412.736,248.9066,415.358,249.7987,418.126,250.1863,420.0146,249.7473,423.1268" style="stroke:#C6303E;stroke-width:1.0417;"/><path d="M240.9485,419.3041 L240.9485,424.2032 L242.218,424.2032 Q242.6575,424.2032 242.8528,424.3823 Q243.0481,424.545 243.0481,424.838 Q243.0481,425.1147 242.8528,425.2937 Q242.6575,425.4565 242.218,425.4565 L238.4257,425.4565 Q237.9862,425.4565 237.7909,425.2937 Q237.5956,425.1147 237.5956,424.8217 Q237.5956,424.545 237.7909,424.3823 Q237.9862,424.2032 238.4257,424.2032 L239.6952,424.2032 L239.6952,419.3041 L238.4257,419.3041 Q237.9862,419.3041 237.7909,419.1414 Q237.5956,418.9624 237.5956,418.6857 Q237.5956,418.3927 237.7909,418.2299 Q237.9862,418.0509 238.4257,418.0509 L242.218,418.0509 Q242.6575,418.0509 242.8528,418.2299 Q243.0481,418.3927 243.0481,418.6857 Q243.0481,418.9624 242.8528,419.1414 Q242.6575,419.3041 242.218,419.3041 L240.9485,419.3041 Z " fill="#2E2E2E"/><text fill="#555555" font-family="Segoe Print" font-size="11.4583" font-style="italic" lengthAdjust="spacing" textLength="62.7411" x="258.4452" y="425.6007">JwtService</text><path d="M226.1536,441.6906 L226.1536,441.9825 L236.386,441.1151 L246.6184,441.959 L256.8509,442.2457 L267.0833,440.6997 L277.3158,441.5826 L287.5482,441.0982 L297.7807,441.1579 L308.0131,441.5959 L318.2455,440.7303 L328.478,441.6906" fill="#F8F9FA" style="stroke:#6C757D;stroke-width:1.0417;"/><path d="M226.1536,450.0239 L226.1536,450.3158 L236.386,449.4485 L246.6184,450.2924 L256.8509,450.579 L267.0833,449.0331 L277.3158,449.916 L287.5482,449.4316 L297.7807,449.4913 L308.0131,449.9292 L318.2455,449.0637 L328.478,450.0239" fill="#F8F9FA" style="stroke:#6C757D;stroke-width:1.0417;"/></g><!--class PasswordPolicyService--><g class="entity" data-entity="PasswordPolicyService" data-source-line="14" data-uid="ent0004" id="entity_PasswordPolicyService"><polygon fill="#F8F9FA" points="105.3202,707.1391,105.3202,707.358,115.4487,706.7075,125.5771,707.3404,135.7055,707.5554,145.834,706.396,155.9624,707.0581,166.0908,706.6948,176.2193,706.7396,186.3477,707.0681,196.4761,706.4189,206.6046,707.7158,216.733,706.4825,226.8614,706.9331,236.9899,707.589,247.1183,707.0497,257.2467,707.2102,267.3752,707.1391,267.3709,707.1288,267.9882,707.4404,268.5855,707.7039,269.2208,708.0592,269.8214,708.3307,270.3215,708.3595,270.5394,708.4497,270.6472,708.9826,270.9583,709.5996,271.279,710.2205,271.0664,710.6207,271.5418,711.3057,272.2486,711.3057,271.233,721.1327,272.0979,730.9597,271.0262,740.7866,271.4705,750.6136,271.5418,760.4406,271.7798,760.5391,271.2821,761.0234,271.0875,761.6331,270.9182,762.2533,270.6991,762.8529,270.3215,763.3869,270.3209,763.3856,269.7704,763.7231,269.0669,763.6914,268.5915,764.2103,268.0373,764.539,267.3752,764.6072,267.3752,765.0703,257.2467,765.2458,247.1183,764.104,236.9899,763.9279,226.8614,763.9599,216.733,764.5459,206.6046,764.4025,196.4761,765.317,186.3477,764.4253,176.2193,764.2499,166.0908,764.845,155.9624,763.9126,145.834,764.0665,135.7055,765.2832,125.5771,765.0611,115.4487,765.3723,105.3202,764.6072,105.2775,764.504,104.7734,764.4656,104.2202,764.3085,103.4897,763.7235,102.9505,763.6002,102.374,763.3869,102.4144,763.4036,102.339,762.8842,101.8845,762.2078,101.7901,761.6805,101.22,760.9562,101.1536,760.4406,100.4481,760.4406,101.6782,750.6136,100.4068,740.7866,101.6837,730.9597,101.3688,721.1327,101.1536,711.3057,101.0676,711.2701,101.2842,710.6695,101.7889,710.1882,101.7898,709.4982,102.3197,709.0274,102.374,708.3595,102.3005,708.1822,103.0452,708.3135,103.6168,708.0267,104.1743,707.7058,104.7372,707.3983,105.3202,707.1391" style="stroke:#6C757D;stroke-width:1.0417;"/><polygon fill="none" points="126.2111,730.0736,124.6842,732.1599,122.8782,735.2157,120.2952,737.275,117.581,738.4012,115.4168,738.4989,112.6353,737.0905,110.0107,736.1704,108.0187,734.3023,106.9737,732.1637,106.354,730.4608,105.7469,728.2365,104.7615,726.3225,105.5187,724.4537,106.1822,722.4065,108.6718,720.7874,110.4234,718.6867,112.5914,717.9891,115.1688,717.3884,118.474,717.7453,120.2843,718.599,122.3891,718.986,124.9482,721.608,125.8404,724.376,126.228,726.2646,125.7889,729.3768" style="stroke:#C6303E;stroke-width:1.0417;"/><path d="M116.9902,725.5541 L116.9902,730.4532 L118.2597,730.4532 Q118.6991,730.4532 118.8944,730.6323 Q119.0898,730.795 119.0898,731.088 Q119.0898,731.3647 118.8944,731.5437 Q118.6991,731.7065 118.2597,731.7065 L114.4674,731.7065 Q114.0279,731.7065 113.8326,731.5437 Q113.6373,731.3647 113.6373,731.0717 Q113.6373,730.795 113.8326,730.6323 Q114.0279,730.4532 114.4674,730.4532 L115.7369,730.4532 L115.7369,725.5541 L114.4674,725.5541 Q114.0279,725.5541 113.8326,725.3914 Q113.6373,725.2124 113.6373,724.9357 Q113.6373,724.6427 113.8326,724.4799 Q114.0279,724.3009 114.4674,724.3009 L118.2597,724.3009 Q118.6991,724.3009 118.8944,724.4799 Q119.0898,724.6427 119.0898,724.9357 Q119.0898,725.2124 118.8944,725.3914 Q118.6991,725.5541 118.2597,725.5541 L116.9902,725.5541 Z " fill="#2E2E2E"/><text fill="#555555" font-family="Segoe Print" font-size="11.4583" font-style="italic" lengthAdjust="spacing" textLength="128.7216" x="134.4869" y="731.8507">PasswordPolicyService</text><path d="M102.1952,747.9406 L102.1952,748.2325 L112.7143,747.3651 L123.2334,748.209 L133.7524,748.4957 L144.2715,746.9497 L154.7905,747.8326 L165.3096,747.3482 L175.8286,747.4079 L186.3477,747.8459 L196.8668,746.9803 L207.3858,748.7095 L217.9049,747.0652 L228.4239,747.6659 L238.943,748.5405 L249.4621,747.8214 L259.9811,748.0353 L270.5002,747.9406" fill="#F8F9FA" style="stroke:#6C757D;stroke-width:1.0417;"/><path d="M102.1952,756.2739 L102.1952,756.5658 L112.7143,755.6985 L123.2334,756.5424 L133.7524,756.829 L144.2715,755.2831 L154.7905,756.166 L165.3096,755.6816 L175.8286,755.7413 L186.3477,756.1792 L196.8668,755.3137 L207.3858,757.0429 L217.9049,755.3985 L228.4239,755.9992 L238.943,756.8738 L249.4621,756.1548 L259.9811,756.3687 L270.5002,756.2739" fill="#F8F9FA" style="stroke:#6C757D;stroke-width:1.0417;"/></g><!--class UserServiceImpl--><g class="entity" data-entity="UserServiceImpl" data-source-line="15" data-uid="ent0005" id="entity_UserServiceImpl"><polygon fill="#F8F9FA" points="383.4452,554.0141,383.4452,554.233,393.8959,553.5825,404.3466,554.2154,414.7973,554.4304,425.248,553.271,435.6987,553.9331,446.1494,553.5698,456.6001,553.6146,467.0508,553.9431,477.5016,553.2939,487.9523,554.5908,498.403,553.3575,508.8537,554.0141,508.8274,553.9506,509.5003,554.3967,510.0208,554.4747,510.6305,554.7682,511.2064,554.9801,511.7999,555.2345,511.8572,555.2582,512.1207,555.8555,512.476,556.4908,512.7474,557.0914,512.9941,557.6817,513.0203,558.1807,513.2856,558.1807,513.5032,568.0077,513.7518,577.8347,512.2691,587.6616,513.7271,597.4886,513.0203,607.3156,512.9252,607.2762,512.9475,607.9758,512.3734,608.4283,512.2661,609.0742,512.2819,609.7711,511.7999,610.2619,511.7935,610.2462,511.2247,610.5397,510.6664,610.8586,510.0875,611.1276,509.4424,611.2369,508.8537,611.4822,508.8537,611.7814,498.403,610.886,487.9523,611.7785,477.5016,612.0533,467.0508,611.9453,456.6001,612.1208,446.1494,610.979,435.6987,610.8029,425.248,610.8349,414.7973,611.4209,404.3466,611.2775,393.8959,612.192,383.4452,611.4822,383.422,611.4262,382.8104,611.1281,382.2971,611.0673,381.5889,610.5361,381.0192,610.3394,380.499,610.2619,380.7071,610.3481,380.3946,609.7305,380.2464,609.1809,379.6635,608.4513,379.625,607.9472,379.2786,607.3156,379.8936,607.3156,378.7865,597.4886,379.1787,587.6616,379.4098,577.8347,379.9575,568.0077,379.2786,558.1807,379.2772,558.1802,379.671,557.653,379.5891,556.9286,379.7935,556.323,380.4164,555.8906,380.499,555.2345,380.4037,555.0045,381.1558,555.1537,381.7049,554.8126,382.2311,554.4163,382.809,554.1447,383.4452,554.0141" style="stroke:#6C757D;stroke-width:1.0417;"/><polygon fill="none" points="404.3361,576.9486,402.8092,579.0349,401.0032,582.0907,398.4202,584.15,395.706,585.2762,393.5418,585.3739,390.7603,583.9655,388.1357,583.0454,386.1437,581.1773,385.0987,579.0387,384.479,577.3358,383.8719,575.1115,382.8865,573.1975,383.6437,571.3287,384.3072,569.2815,386.7968,567.6624,388.5484,565.5617,390.7164,564.8641,393.2938,564.2634,396.599,564.6203,398.4093,565.474,400.5141,565.861,403.0732,568.483,403.9654,571.251,404.353,573.1396,403.9139,576.2518" style="stroke:#4D4D4D;stroke-width:1.0417;"/><path d="M395.4081,571.5014 Q395.5221,571.3387 395.6523,571.2573 Q395.7987,571.1759 395.9615,571.1759 Q396.2382,571.1759 396.401,571.3712 Q396.58,571.5665 396.58,572.006 L396.58,573.0802 Q396.58,573.5196 396.401,573.715 Q396.2382,573.9103 395.9615,573.9103 Q395.7011,573.9103 395.5546,573.7638 Q395.4081,573.6336 395.3267,573.243 Q395.2942,572.9825 395.164,572.8523 Q394.9036,572.5756 394.4478,572.4129 Q394.0084,572.2501 393.5527,572.2501 Q392.9993,572.2501 392.5273,572.4943 Q392.0553,572.7384 391.6972,573.2918 Q391.3391,573.8289 391.3391,574.5939 L391.3391,575.4077 Q391.3391,576.3028 391.9902,576.9051 Q392.6575,577.5073 393.8131,577.5073 Q394.5129,577.5073 395.0012,577.3282 Q395.2779,577.2143 395.5872,576.8888 Q395.7825,576.6935 395.8964,576.6446 Q396.0103,576.5795 396.1405,576.5795 Q396.401,576.5795 396.58,576.7749 Q396.7753,576.9539 396.7753,577.2143 Q396.7753,577.4747 396.5149,577.7677 Q396.1405,578.1909 395.5546,578.435 Q394.7734,578.7605 393.8293,578.7605 Q392.7063,578.7605 391.8274,578.3048 Q391.095,577.9467 390.5904,577.1492 Q390.0859,576.3517 390.0859,575.4239 L390.0859,574.5776 Q390.0859,573.601 390.5416,572.7547 Q390.9973,571.9083 391.7948,571.4526 Q392.6086,570.9969 393.5038,570.9969 Q394.0572,570.9969 394.5292,571.1271 Q395.0012,571.241 395.4081,571.5014 Z " fill="#2E2E2E"/><text fill="#555555" font-family="Segoe Print" font-size="11.4583" lengthAdjust="spacing" textLength="92.0751" x="412.6119" y="578.7257">UserServiceImpl</text><path d="M380.3202,594.8156 L380.3202,595.1075 L390.4478,594.2401 L400.5754,595.084 L410.7029,595.3707 L420.8305,593.8247 L430.9581,594.7076 L441.0857,594.2232 L451.2132,594.2829 L461.3408,594.7209 L471.4684,593.8553 L481.5959,595.5845 L491.7235,593.9402 L501.8511,594.5409 L511.9787,594.8156" fill="#F8F9FA" style="stroke:#6C757D;stroke-width:1.0417;"/><path d="M380.3202,603.1489 L380.3202,603.4408 L390.4478,602.5735 L400.5754,603.4174 L410.7029,603.704 L420.8305,602.1581 L430.9581,603.041 L441.0857,602.5566 L451.2132,602.6163 L461.3408,603.0542 L471.4684,602.1887 L481.5959,603.9179 L491.7235,602.2735 L501.8511,602.8742 L511.9787,603.1489" fill="#F8F9FA" style="stroke:#6C757D;stroke-width:1.0417;"/></g><!--class JwtServiceImpl--><g class="entity" data-entity="JwtServiceImpl" data-source-line="16" data-uid="ent0006" id="entity_JwtServiceImpl"><polygon fill="#F8F9FA" points="216.2577,554.0141,216.2577,554.233,226.4385,553.5825,236.6192,554.2154,246.8,554.4304,256.9807,553.271,267.1615,553.9331,277.3422,553.5698,287.523,553.6146,297.7037,553.9431,307.8845,553.2939,318.0652,554.5908,328.246,553.3575,338.4267,554.0141,338.4004,553.9506,339.0734,554.3967,339.5938,554.4747,340.2036,554.7682,340.7795,554.9801,341.373,555.2345,341.4303,555.2582,341.6938,555.8555,342.049,556.4908,342.3205,557.0914,342.5672,557.6817,342.5934,558.1807,342.8586,558.1807,343.0763,568.0077,343.3249,577.8347,341.8421,587.6616,343.3002,597.4886,342.5934,607.3156,342.4983,607.2762,342.5205,607.9758,341.9464,608.4283,341.8392,609.0742,341.855,609.7711,341.373,610.2619,341.3665,610.2462,340.7977,610.5397,340.2395,610.8586,339.6605,611.1276,339.0155,611.2369,338.4267,611.4822,338.4267,611.7814,328.246,610.886,318.0652,611.7785,307.8845,612.0533,297.7037,611.9453,287.523,612.1208,277.3422,610.979,267.1615,610.8029,256.9807,610.8349,246.8,611.4209,236.6192,611.2775,226.4385,612.192,216.2577,611.4822,216.2345,611.4262,215.6229,611.1281,215.1096,611.0673,214.4014,610.5361,213.8317,610.3394,213.3115,610.2619,213.5196,610.3481,213.2071,609.7305,213.0589,609.1809,212.476,608.4513,212.4375,607.9472,212.0911,607.3156,212.7061,607.3156,211.599,597.4886,211.9912,587.6616,212.2223,577.8347,212.77,568.0077,212.0911,558.1807,212.0897,558.1802,212.4835,557.653,212.4016,556.9286,212.606,556.323,213.2289,555.8906,213.3115,555.2345,213.2162,555.0045,213.9683,555.1537,214.5174,554.8126,215.0436,554.4163,215.6215,554.1447,216.2577,554.0141" style="stroke:#6C757D;stroke-width:1.0417;"/><polygon fill="none" points="237.1486,576.9486,235.6217,579.0349,233.8157,582.0907,231.2327,584.15,228.5185,585.2762,226.3543,585.3739,223.5728,583.9655,220.9482,583.0454,218.9562,581.1773,217.9112,579.0387,217.2915,577.3358,216.6844,575.1115,215.699,573.1975,216.4562,571.3287,217.1197,569.2815,219.6093,567.6624,221.3609,565.5617,223.5289,564.8641,226.1063,564.2634,229.4115,564.6203,231.2218,565.474,233.3266,565.861,235.8857,568.483,236.7779,571.251,237.1655,573.1396,236.7264,576.2518" style="stroke:#4D4D4D;stroke-width:1.0417;"/><path d="M228.2206,571.5014 Q228.3346,571.3387 228.4648,571.2573 Q228.6112,571.1759 228.774,571.1759 Q229.0507,571.1759 229.2135,571.3712 Q229.3925,571.5665 229.3925,572.006 L229.3925,573.0802 Q229.3925,573.5196 229.2135,573.715 Q229.0507,573.9103 228.774,573.9103 Q228.5136,573.9103 228.3671,573.7638 Q228.2206,573.6336 228.1392,573.243 Q228.1067,572.9825 227.9765,572.8523 Q227.7161,572.5756 227.2603,572.4129 Q226.8209,572.2501 226.3652,572.2501 Q225.8118,572.2501 225.3398,572.4943 Q224.8678,572.7384 224.5097,573.2918 Q224.1516,573.8289 224.1516,574.5939 L224.1516,575.4077 Q224.1516,576.3028 224.8027,576.9051 Q225.47,577.5073 226.6256,577.5073 Q227.3254,577.5073 227.8137,577.3282 Q228.0904,577.2143 228.3997,576.8888 Q228.595,576.6935 228.7089,576.6446 Q228.8228,576.5795 228.953,576.5795 Q229.2135,576.5795 229.3925,576.7749 Q229.5878,576.9539 229.5878,577.2143 Q229.5878,577.4747 229.3274,577.7677 Q228.953,578.1909 228.3671,578.435 Q227.5859,578.7605 226.6418,578.7605 Q225.5188,578.7605 224.6399,578.3048 Q223.9075,577.9467 223.4029,577.1492 Q222.8984,576.3517 222.8984,575.4239 L222.8984,574.5776 Q222.8984,573.601 223.3541,572.7547 Q223.8098,571.9083 224.6073,571.4526 Q225.4211,570.9969 226.3163,570.9969 Q226.8697,570.9969 227.3417,571.1271 Q227.8137,571.241 228.2206,571.5014 Z " fill="#2E2E2E"/><text fill="#555555" font-family="Segoe Print" font-size="11.4583" lengthAdjust="spacing" textLength="88.8357" x="245.4244" y="578.7257">JwtServiceImpl</text><path d="M213.1327,594.8156 L213.1327,595.1075 L223.8343,594.2401 L234.5359,595.084 L245.2375,595.3707 L255.9391,593.8247 L266.6406,594.7076 L277.3422,594.2232 L288.0438,594.2829 L298.7454,594.7209 L309.447,593.8553 L320.1486,595.5845 L330.8501,593.9402 L341.5517,594.8156" fill="#F8F9FA" style="stroke:#6C757D;stroke-width:1.0417;"/><path d="M213.1327,603.1489 L213.1327,603.4408 L223.8343,602.5735 L234.5359,603.4174 L245.2375,603.704 L255.9391,602.1581 L266.6406,603.041 L277.3422,602.5566 L288.0438,602.6163 L298.7454,603.0542 L309.447,602.1887 L320.1486,603.9179 L330.8501,602.2735 L341.5517,603.1489" fill="#F8F9FA" style="stroke:#6C757D;stroke-width:1.0417;"/></g><!--class PasswordPolicy--><g class="entity" data-entity="PasswordPolicy" data-source-line="17" data-uid="ent0007" id="entity_PasswordPolicy"><polygon fill="#F8F9FA" points="125.6327,842.5557,125.6327,842.7747,135.7669,842.1242,145.901,842.7571,156.0351,842.9721,166.1692,841.8126,176.3034,842.4748,186.4375,842.1115,196.5716,842.1563,206.7057,842.4847,216.8399,841.8356,226.974,843.1325,237.1081,841.8992,247.2422,842.5557,247.2159,842.4923,247.8889,842.9384,248.4093,843.0164,249.0191,843.3099,249.595,843.5218,250.1885,843.7761,250.2458,843.7999,250.5093,844.3972,250.8645,845.0325,251.136,845.6331,251.3827,846.2234,251.4089,846.7224,251.6741,846.7224,251.8918,856.5494,252.1404,866.3763,250.6577,876.2033,252.1157,886.0303,251.4089,895.8572,251.3138,895.8178,251.3361,896.5174,250.7619,896.97,250.6547,897.6159,250.6705,898.3128,250.1885,898.8035,250.182,898.7879,249.6132,899.0814,249.055,899.4003,248.476,899.6693,247.831,899.7786,247.2422,900.0239,247.2422,900.3231,237.1081,899.4276,226.974,900.3201,216.8399,900.5949,206.7057,900.487,196.5716,900.6625,186.4375,899.5207,176.3034,899.3445,166.1692,899.3766,156.0351,899.9626,145.901,899.8192,135.7669,900.7337,125.6327,900.0239,125.6095,899.9679,124.9979,899.6698,124.4846,899.609,123.7764,899.0778,123.2067,898.8811,122.6865,898.8035,122.8946,898.8897,122.5821,898.2722,122.4339,897.7226,121.851,896.993,121.8125,896.4889,121.4661,895.8572,122.0811,895.8572,120.974,886.0303,121.3662,876.2033,121.5973,866.3763,122.145,856.5494,121.4661,846.7224,121.4647,846.7219,121.8585,846.1946,121.7766,845.4703,121.981,844.8647,122.6039,844.4323,122.6865,843.7761,122.5912,843.5461,123.3433,843.6953,123.8924,843.3543,124.4186,842.958,124.9965,842.6863,125.6327,842.5557" style="stroke:#6C757D;stroke-width:1.0417;"/><polygon fill="none" points="146.5236,865.4902,144.9967,867.5766,143.1907,870.6323,140.6077,872.6917,137.8935,873.8179,135.7293,873.9156,132.9478,872.5072,130.3232,871.5871,128.3312,869.719,127.2862,867.5803,126.6665,865.8775,126.0594,863.6532,125.074,861.7391,125.8312,859.8703,126.4947,857.8232,128.9843,856.2041,130.7359,854.1034,132.9039,853.4058,135.4813,852.805,138.7865,853.162,140.5968,854.0157,142.7016,854.4027,145.2607,857.0247,146.1529,859.7926,146.5405,861.6813,146.1014,864.7935" style="stroke:#4D4D4D;stroke-width:1.0417;"/><path d="M137.5956,860.0431 Q137.7096,859.8803 137.8398,859.7989 Q137.9862,859.7176 138.149,859.7176 Q138.4257,859.7176 138.5885,859.9129 Q138.7675,860.1082 138.7675,860.5476 L138.7675,861.6219 Q138.7675,862.0613 138.5885,862.2566 Q138.4257,862.4519 138.149,862.4519 Q137.8886,862.4519 137.7421,862.3055 Q137.5956,862.1752 137.5142,861.7846 Q137.4817,861.5242 137.3515,861.394 Q137.0911,861.1173 136.6353,860.9545 Q136.1959,860.7918 135.7402,860.7918 Q135.1868,860.7918 134.7148,861.0359 Q134.2428,861.2801 133.8847,861.8334 Q133.5266,862.3706 133.5266,863.1355 L133.5266,863.9493 Q133.5266,864.8445 134.1777,865.4467 Q134.845,866.0489 136.0006,866.0489 Q136.7004,866.0489 137.1887,865.8699 Q137.4654,865.756 137.7747,865.4305 Q137.97,865.2351 138.0839,865.1863 Q138.1978,865.1212 138.328,865.1212 Q138.5885,865.1212 138.7675,865.3165 Q138.9628,865.4956 138.9628,865.756 Q138.9628,866.0164 138.7024,866.3094 Q138.328,866.7325 137.7421,866.9767 Q136.9609,867.3022 136.0168,867.3022 Q134.8938,867.3022 134.0149,866.8465 Q133.2825,866.4884 132.7779,865.6909 Q132.2734,864.8933 132.2734,863.9656 L132.2734,863.1193 Q132.2734,862.1427 132.7291,861.2963 Q133.1848,860.45 133.9823,859.9943 Q134.7961,859.5385 135.6913,859.5385 Q136.2447,859.5385 136.7167,859.6687 Q137.1887,859.7827 137.5956,860.0431 Z " fill="#2E2E2E"/><text fill="#555555" font-family="Segoe Print" font-size="11.4583" lengthAdjust="spacing" textLength="88.2762" x="154.7994" y="867.2674">PasswordPolicy</text><path d="M122.5077,883.3572 L122.5077,883.6492 L133.1627,882.7818 L143.8176,883.6257 L154.4726,883.9123 L165.1276,882.3664 L175.7825,883.2493 L186.4375,882.7649 L197.0924,882.8246 L207.7474,883.2626 L218.4024,882.397 L229.0573,884.1262 L239.7123,882.4818 L250.3672,883.3572" fill="#F8F9FA" style="stroke:#6C757D;stroke-width:1.0417;"/><path d="M122.5077,891.6906 L122.5077,891.9825 L133.1627,891.1151 L143.8176,891.959 L154.4726,892.2457 L165.1276,890.6997 L175.7825,891.5826 L186.4375,891.0982 L197.0924,891.1579 L207.7474,891.5959 L218.4024,890.7303 L229.0573,892.4595 L239.7123,890.8152 L250.3672,891.6906" fill="#F8F9FA" style="stroke:#6C757D;stroke-width:1.0417;"/></g><!--class AuthAutoConfiguration--><g class="entity" data-entity="AuthAutoConfiguration" data-source-line="18" data-uid="ent0008" id="entity_AuthAutoConfiguration"><polygon fill="#F8F9FA" points="193.3411,247.7641,193.3411,247.983,203.8458,247.3325,214.3504,247.9654,224.8551,248.1804,235.3598,247.021,245.8645,247.6831,256.3692,247.3198,266.8739,247.3646,277.3786,247.6931,287.8833,247.0439,298.388,248.3408,308.8927,247.1075,319.3974,247.5581,329.902,248.214,340.4067,247.6747,350.9114,247.8352,361.4161,247.7641,361.4119,247.7538,362.0291,248.0654,362.6264,248.3289,363.2617,248.6842,363.8623,248.9557,364.3624,248.9845,364.5803,249.0747,364.6882,249.6076,364.9993,250.2246,365.3199,250.8455,365.1074,251.2457,365.5828,251.9307,366.2896,251.9307,365.2739,261.7577,366.1388,271.5847,365.0671,281.4116,365.5114,291.2386,365.5828,301.0656,365.8207,301.1641,365.3231,301.6484,365.1284,302.2581,364.9592,302.8783,364.74,303.4779,364.3624,304.0119,364.3619,304.0106,363.8113,304.3481,363.1078,304.3164,362.6324,304.8353,362.0782,305.164,361.4161,305.2322,361.4161,305.6953,350.9114,305.8708,340.4067,304.729,329.902,304.5529,319.3974,304.5849,308.8927,305.1709,298.388,305.0275,287.8833,305.942,277.3786,305.0503,266.8739,304.8749,256.3692,305.47,245.8645,304.5376,235.3598,304.6915,224.8551,305.9082,214.3504,305.6861,203.8458,305.9973,193.3411,305.2322,193.2983,305.129,192.7942,305.0906,192.241,304.9335,191.5105,304.3485,190.9713,304.2252,190.3948,304.0119,190.4352,304.0286,190.3598,303.5092,189.9053,302.8328,189.8109,302.3055,189.2408,301.5812,189.1744,301.0656,188.4689,301.0656,189.699,291.2386,188.4276,281.4116,189.7046,271.5847,189.3896,261.7577,189.1744,251.9307,189.0885,251.8951,189.305,251.2945,189.8097,250.8132,189.8106,250.1232,190.3406,249.6524,190.3948,248.9845,190.3213,248.8072,191.0661,248.9385,191.6376,248.6517,192.1951,248.3308,192.7581,248.0233,193.3411,247.7641" style="stroke:#6C757D;stroke-width:1.0417;"/><polygon fill="none" points="214.2319,270.6986,212.705,272.7849,210.899,275.8407,208.3161,277.9,205.6018,279.0262,203.4377,279.1239,200.6561,277.7155,198.0316,276.7954,196.0395,274.9273,194.9945,272.7887,194.3748,271.0858,193.7677,268.8615,192.7823,266.9475,193.5396,265.0787,194.203,263.0315,196.6927,261.4124,198.4442,259.3117,200.6123,258.6141,203.1897,258.0134,206.4949,258.3703,208.3052,259.224,210.4099,259.611,212.9691,262.233,213.8612,265.001,214.2488,266.8896,213.8098,270.0018" style="stroke:#4D4D4D;stroke-width:1.0417;"/><path d="M205.304,265.2514 Q205.4179,265.0887 205.5481,265.0073 Q205.6946,264.9259 205.8573,264.9259 Q206.134,264.9259 206.2968,265.1212 Q206.4758,265.3165 206.4758,265.756 L206.4758,266.8302 Q206.4758,267.2696 206.2968,267.465 Q206.134,267.6603 205.8573,267.6603 Q205.5969,267.6603 205.4504,267.5138 Q205.304,267.3836 205.2226,266.993 Q205.19,266.7325 205.0598,266.6023 Q204.7994,266.3256 204.3437,266.1629 Q203.9042,266.0001 203.4485,266.0001 Q202.8951,266.0001 202.4231,266.2443 Q201.9511,266.4884 201.593,267.0418 Q201.2349,267.5789 201.2349,268.3439 L201.2349,269.1577 Q201.2349,270.0528 201.886,270.6551 Q202.5533,271.2573 203.7089,271.2573 Q204.4088,271.2573 204.8971,271.0782 Q205.1737,270.9643 205.483,270.6388 Q205.6783,270.4435 205.7922,270.3946 Q205.9062,270.3295 206.0364,270.3295 Q206.2968,270.3295 206.4758,270.5249 Q206.6711,270.7039 206.6711,270.9643 Q206.6711,271.2247 206.4107,271.5177 Q206.0364,271.9409 205.4504,272.185 Q204.6692,272.5105 203.7252,272.5105 Q202.6021,272.5105 201.7232,272.0548 Q200.9908,271.6967 200.4862,270.8992 Q199.9817,270.1017 199.9817,269.1739 L199.9817,268.3276 Q199.9817,267.351 200.4374,266.5047 Q200.8931,265.6583 201.6907,265.2026 Q202.5045,264.7469 203.3997,264.7469 Q203.953,264.7469 204.425,264.8771 Q204.8971,264.991 205.304,265.2514 Z " fill="#2E2E2E"/><text fill="#555555" font-family="Segoe Print" font-size="11.4583" lengthAdjust="spacing" textLength="134.7417" x="222.5077" y="272.4757">AuthAutoConfiguration</text><path d="M190.2161,288.5656 L190.2161,288.8575 L200.4705,287.9901 L210.7249,288.834 L220.9793,289.1207 L231.2337,287.5747 L241.4881,288.4576 L251.7426,287.9732 L261.997,288.0329 L272.2514,288.4709 L282.5058,287.6053 L292.7602,289.3345 L303.0146,287.6902 L313.269,288.2909 L323.5235,289.1655 L333.7779,288.4464 L344.0323,288.6603 L354.2867,288.5212 L364.5411,288.5656" fill="#F8F9FA" style="stroke:#6C757D;stroke-width:1.0417;"/><path d="M190.2161,296.8989 L190.2161,297.1908 L200.4705,296.3235 L210.7249,297.1674 L220.9793,297.454 L231.2337,295.9081 L241.4881,296.791 L251.7426,296.3066 L261.997,296.3663 L272.2514,296.8042 L282.5058,295.9387 L292.7602,297.6679 L303.0146,296.0235 L313.269,296.6242 L323.5235,297.4988 L333.7779,296.7798 L344.0323,296.9937 L354.2867,296.8545 L364.5411,296.8989" fill="#F8F9FA" style="stroke:#6C757D;stroke-width:1.0417;"/></g><g class="entity" data-entity="GMN19" data-source-line="29" data-uid="ent0020" id="entity_GMN19"><path d="M158.9661,101.9307 L159.5499,101.9307 L157.8152,113.0522 L159.503,124.1737 L160.0763,135.2952 L156.9844,146.4167 L158.7502,157.5381 L157.7814,168.6596 L158.9661,179.7811 L163.1327,183.9478 L163.1327,182.8825 L173.1233,183.7584 L183.1138,182.0273 L193.1043,185.4856 L203.0949,182.197 L213.0854,183.3984 L223.0759,185.1476 L233.0664,183.7095 L243.057,184.1373 L253.0475,183.859 L263.038,184.4437 L273.0286,183.9478 L273.6914,183.9912 L275.3464,194.6451 L276.2775,205.2515 L276.9947,215.844 L276.5121,226.3577 L277.7858,236.9866 L277.1952,247.4932 L279.1417,247.6209 L275.8907,236.7713 L280.4648,226.4347 L278.4567,215.6666 L281.4526,205.2266 L279.2953,194.4487 L281.3619,183.9478 L281.3619,183.7575 L291.3354,186.0078 L301.3089,183.8124 L311.2824,184.2403 L321.256,184.8884 L331.2295,185.104 L341.203,183.9369 L351.1765,184.7456 L361.15,182.3577 L371.1235,184.7377 L381.097,185.4705 L391.0706,183.9478 L395.2372,179.7811 L396.472,179.7811 L396.9401,169.5525 L393.8953,159.3238 L393.4256,149.0952 L393.5111,138.8666 L395.0737,128.638 L394.6913,118.4094 L395.2372,108.1807 L395.6834,108.6269 L393.0395,105.983 L390.8459,103.7895 L389.1367,102.0802 L386.4673,99.4108 L384.8206,97.7641 L384.8206,96.3221 L374.264,99.5667 L363.7074,98.9743 L353.1509,99.8043 L342.5943,96.8702 L332.0377,98.6507 L321.4812,99.4041 L310.9246,96.4518 L300.3681,97.4978 L289.8115,98.114 L279.2549,99.5745 L268.6984,97.7524 L258.1418,99.049 L247.5852,96.2258 L237.0287,95.8828 L226.4721,99.163 L215.9155,95.7726 L205.359,99.1779 L194.8024,98.338 L184.2459,97.0199 L173.6893,96.7814 L163.1327,97.7641 L158.9661,101.9307" fill="#E8F4FD" style="stroke:#2C5282;stroke-width:1.0417;"/><path d="M384.8206,97.7641 L385.0152,97.7641 L384.4369,99.4307 L384.9995,101.0974 L385.1906,102.7641 L384.16,104.4307 L384.8206,106.0974 L386.9039,108.1807 L386.9039,108.1088 L388.5706,107.7858 L390.2372,107.8257 L391.9039,108.1176 L393.5706,107.5406 L395.2372,108.1807 L395.5997,108.5432 L392.7412,105.6847 L390.9411,103.8846 L389.27,102.2136 L386.8477,99.7913 L384.8206,97.7641" fill="#E8F4FD" style="stroke:#2C5282;stroke-width:1.0417;"/><text fill="#1A202C" font-family="Segoe Print" font-size="12.5" font-weight="bold" lengthAdjust="spacing" textLength="203.9795" x="170.4244" y="123.7752">Spring Boot Auto-Configuration</text><text fill="#1A202C" font-family="Segoe Print" font-size="12.5" lengthAdjust="spacing" textLength="192.4927" x="170.4244" y="145.5587">Zero-configuration setup with</text><text fill="#1A202C" font-family="Segoe Print" font-size="12.5" lengthAdjust="spacing" textLength="168.6768" x="170.4244" y="167.3421">automatic password policy</text></g><g class="entity" data-entity="GMN22" data-source-line="35" data-uid="ent0023" id="entity_GMN22"><path d="M288.6536,832.1391 L288.8482,832.1391 L288.2699,839.1182 L288.8325,846.0974 L289.0236,853.0766 L287.993,860.0557 L288.6536,867.0349 L288.6455,866.9634 L281.2611,867.4759 L273.9177,868.3487 L266.6027,869.4722 L259.1898,869.7322 L251.914,871.2016 L251.9717,871.7109 L259.1961,871.455 L266.5892,872.6863 L274.0028,874.099 L281.2967,874.456 L288.6536,875.3682 L288.7167,875.3682 L288.624,882.2925 L288.8189,889.2167 L288.875,896.141 L289.1959,903.0652 L288.6536,909.9894 L292.8202,914.1561 L292.8202,916.0201 L303.2531,916.0429 L313.6859,914.8634 L324.1188,915.4438 L334.5516,916.1067 L344.9845,912.1528 L355.4174,916.0408 L365.8502,913.3325 L376.2831,915.6389 L386.7159,912.781 L397.1488,913.9658 L407.5816,916.2161 L418.0145,914.0207 L428.4473,914.4486 L438.8802,915.0967 L449.313,915.3123 L459.7459,914.1452 L470.1788,914.9539 L480.6116,912.566 L491.0445,914.9461 L501.4773,915.6789 L511.9102,915.3909 L522.343,915.8589 L532.7759,914.1561 L536.9425,909.9894 L535.6007,909.9894 L535.1309,899.7608 L535.2164,889.5322 L536.779,879.3036 L536.3966,869.0749 L538.8354,858.8463 L536.4573,848.6177 L536.9425,838.3891 L536.7179,838.1645 L535.0087,836.4552 L532.3393,833.7858 L530.3527,831.7992 L529.0341,830.4806 L526.5259,827.9724 L526.5259,829.1826 L515.9029,830.0127 L505.2799,827.0785 L494.6569,828.8591 L484.0339,829.6125 L473.411,826.6602 L462.788,827.7061 L452.165,828.3224 L441.542,829.7829 L430.919,827.9608 L420.296,829.2573 L409.6731,826.4341 L399.0501,826.0911 L388.4271,829.3713 L377.8041,825.9809 L367.1811,829.3862 L356.5581,828.5464 L345.9352,827.2282 L335.3122,826.9897 L324.6892,829.2467 L314.0662,827.1409 L303.4432,829.6165 L292.8202,827.9724 L288.6536,832.1391" fill="#E8F4FD" style="stroke:#2C5282;stroke-width:1.0417;"/><path d="M526.5259,827.9724 L526.7205,827.9724 L526.1422,829.6391 L526.7048,831.3057 L526.896,832.9724 L525.8653,834.6391 L526.5259,836.3057 L528.6092,838.3891 L528.6092,838.3171 L530.2759,837.9942 L531.9425,838.034 L533.6092,838.326 L535.2759,837.7489 L536.9425,838.3891 L537.305,838.7516 L534.4465,835.8931 L532.6464,834.0929 L530.9754,832.4219 L528.5531,829.9996 L526.5259,827.9724" fill="#E8F4FD" style="stroke:#2C5282;stroke-width:1.0417;"/><text fill="#1A202C" font-family="Segoe Print" font-size="12.5" font-weight="bold" lengthAdjust="spacing" textLength="215.9973" x="300.1119" y="853.9836">&#127381; Password Policy Service (v1.1.0)</text><text fill="#1A202C" font-family="Segoe Print" font-size="12.5" lengthAdjust="spacing" textLength="179.3701" x="300.1119" y="875.767">Configurable validation rules</text><text fill="#1A202C" font-family="Segoe Print" font-size="12.5" lengthAdjust="spacing" textLength="203.2532" x="300.1119" y="897.5505">and secure password generation</text></g><!--reverse link UserService to UserServiceImpl--><g class="link" data-entity-1="UserService" data-entity-2="UserServiceImpl" data-source-line="20" data-uid="lnk10" id="link_UserService_UserServiceImpl"><path d="M444.507,477.0331 L444.7989,477.0371 L444.082,487.96 L445.0762,498.9064 L445.5133,509.8451 L444.1179,520.7586 L445.1511,531.7055 L444.8171,542.6337 L445.5598,553.5766" fill="none" style="stroke:#333333;stroke-width:3.125;stroke-dasharray:7.0,7.0;"/><polygon fill="none" points="444.2473,458.2849,444.3169,458.307,442.9123,462.0083,441.9154,465.8392,440.7857,469.6278,439.2195,473.2777,438.2576,477.1197,438.2572,477.0927,440.7553,476.937,443.2553,476.9173,445.7566,476.9921,448.2533,476.7411,450.7564,476.9466,450.9379,477.0099,449.2479,473.1421,448.0879,469.4593,446.9926,465.799,445.521,462.0074,444.2473,458.2849" style="stroke:#333333;stroke-width:3.125;"/></g><!--reverse link JwtService to JwtServiceImpl--><g class="link" data-entity-1="JwtService" data-entity-2="JwtServiceImpl" data-source-line="21" data-uid="lnk12" id="link_JwtService_JwtServiceImpl"><path d="M277.1952,477.0349 L277.4872,477.0349 L276.6198,487.9694 L277.4637,498.904 L277.7503,509.8385 L276.2044,520.773 L277.0873,531.7075 L276.6029,542.6421 L277.1952,553.5766" fill="none" style="stroke:#333333;stroke-width:3.125;stroke-dasharray:7.0,7.0;"/><polygon fill="none" points="277.1952,458.2849,277.2645,458.308,275.8088,461.9894,274.7589,465.8061,273.5769,469.5788,271.9602,473.2066,270.9452,477.0349,270.9452,477.0079,273.4452,476.8868,275.9452,476.9018,278.4452,477.0112,280.9452,476.7949,283.4452,477.0349,283.6276,477.0957,281.9876,473.2157,280.8801,469.5132,279.8375,465.8323,278.417,462.0255,277.1952,458.2849" style="stroke:#333333;stroke-width:3.125;"/></g><!--reverse link PasswordPolicyService to PasswordPolicy--><g class="link" data-entity-1="PasswordPolicyService" data-entity-2="PasswordPolicy" data-source-line="22" data-uid="lnk14" id="link_PasswordPolicyService_PasswordPolicy"><path d="M186.5702,783.2016 L186.8622,783.2016 L185.9948,793.0193 L186.8387,802.837 L187.1253,812.6547 L185.5794,822.4724 L186.4623,832.2901 L186.5702,842.1078" fill="none" style="stroke:#333333;stroke-width:3.125;stroke-dasharray:7.0,7.0;"/><polygon fill="none" points="186.5702,764.4516,186.6395,764.4747,185.1838,768.1561,184.1339,771.9728,182.9519,775.7455,181.3352,779.3732,180.3202,783.2016,180.3202,783.1746,182.8202,783.0535,185.3202,783.0684,187.8202,783.1779,190.3202,782.9615,192.8202,783.2016,193.0026,783.2624,191.3626,779.3824,190.2551,775.6799,189.2125,771.999,187.792,768.1922,186.5702,764.4516" style="stroke:#333333;stroke-width:3.125;"/></g><!--link AuthAutoConfiguration to UserService--><g class="link" data-entity-1="AuthAutoConfiguration" data-entity-2="UserService" data-source-line="23" data-uid="lnk15" id="link_AuthAutoConfiguration_UserService"><path d="M307.7681,305.1599 L307.9642,305.3762 L315.1361,311.7608 L323.4571,319.4134 L331.4039,326.6532 L338.1201,332.535 L346.4674,340.2165 L353.8964,346.8848 L361.6908,353.9564 L369.7393,361.3082 L376.9124,367.6942 L385.8279,376.0028 L392.478,381.8116 L400.6358,389.2841 L408.5746,396.5149" fill="none" style="stroke:#333333;stroke-width:3.125;"/><polygon fill="#333333" points="413.2056,400.712,413.2724,400.7415,412.2444,398.7772,411.6076,396.9859,410.8434,395.1383,409.6602,393.1054,409.0571,391.329,409.0301,391.3277,408.967,392.4988,409.0398,393.6766,409.207,394.8591,409.0488,396.0256,409.3464,397.2144,409.3558,397.4064,408.1586,397.0537,406.9889,397.2616,405.8225,397.5378,404.6366,397.4162,403.461,397.5038,403.4684,397.5263,405.4064,398.1349,407.3782,398.8459,409.3337,399.5076,411.3203,400.2635,413.2056,400.712" style="stroke:#333333;stroke-width:3.125;"/><text fill="#2E2E2E" font-family="Segoe Print" font-size="12.5" lengthAdjust="spacing" textLength="44.2017" x="381.3619" y="358.1502">creates</text></g><!--link AuthAutoConfiguration to JwtService--><g class="link" data-entity-1="AuthAutoConfiguration" data-entity-2="JwtService" data-source-line="24" data-uid="lnk16" id="link_AuthAutoConfiguration_JwtService"><path d="M277.1952,305.1599 L277.4872,305.1599 L276.6198,315.0534 L277.4637,324.9469 L277.7503,334.8405 L276.2044,344.734 L277.0873,354.6275 L276.6029,364.521 L276.6626,374.4145 L277.1006,384.3081 L277.1952,394.2016" fill="none" style="stroke:#333333;stroke-width:3.125;"/><polygon fill="#333333" points="277.1952,400.4516,277.2619,400.4812,277.8971,398.5182,278.9232,396.7288,279.822,394.8829,280.3022,392.851,281.3619,391.0766,281.3428,391.0575,280.4239,391.8052,279.6011,392.6491,278.8452,393.5598,277.8588,394.2402,277.1952,395.2432,277.3312,395.3792,276.2071,394.2552,275.48,393.528,274.8013,392.8493,273.8408,391.8889,273.0286,391.0766,273.0502,391.0862,273.8518,392.9471,274.7519,394.8518,275.6044,396.7353,276.5477,398.6592,277.1952,400.4516" style="stroke:#333333;stroke-width:3.125;"/><text fill="#2E2E2E" font-family="Segoe Print" font-size="12.5" lengthAdjust="spacing" textLength="44.2017" x="283.4452" y="358.1502">creates</text></g><!--link AuthAutoConfiguration to PasswordPolicyService--><g class="link" data-entity-1="AuthAutoConfiguration" data-entity-2="PasswordPolicyService" data-source-line="25" data-uid="lnk17" id="link_AuthAutoConfiguration_PasswordPolicyService"><path d="M256.4765,305.212 L256.5569,305.2667 L255.0192,307.0135 L253.9531,309.0811 L252.7335,311.0442 L251.0087,312.6638 L249.9832,314.759 L249.953,314.7394 L248.4514,316.7608 L247.102,318.8807 L245.8585,321.0692 L244.2503,323.0215 L243.1529,325.3046 L243.3716,325.4383 L241.5108,327.4303 L240.2884,329.8127 L239.1439,332.2427 L237.5462,334.3956 L236.1869,336.6942 L236.2144,336.7099 L234.794,339.1027 L233.4985,341.5668 L232.1427,343.9965 L230.9019,346.4919 L229.2864,348.7732 L229.5613,348.9178 L228.2379,351.4423 L226.7371,353.8735 L225.496,356.4413 L224.267,359.0154 L222.6524,361.3868 L222.3508,361.2437 L221.703,364.1202 L220.0619,366.5254 L219.176,369.289 L217.5124,371.6835 L216.4862,374.3805 L216.457,374.3683 L215.7038,377.1561 L214.2665,379.6594 L213.2329,382.3306 L212.2332,385.0158 L210.989,387.5994 L211.171,387.6628 L210.0619,390.2568 L209.2637,392.959 L207.9625,395.4861 L207.4117,398.2744 L206.3619,400.8891 L206.6052,400.9614 L205.946,403.0089 L205.4076,405.0923 L204.3081,407.0087 L203.6199,409.0476 L203.2962,411.1948 L203.0186,411.1192 L202.7021,413.2726 L202.0728,415.3408 L201.8972,417.5325 L200.947,419.5133 L200.4572,421.6195 L200.3031,421.5811 L200.0358,423.7502 L199.1098,425.7552 L198.6522,427.8769 L198.653,430.1127 L197.8375,432.1453 L198.0342,432.1899 L197.6875,434.3424 L196.729,436.3559 L196.5368,438.5434 L196.1777,440.693 L195.4295,442.7543 L195.2153,442.7101 L194.9453,444.8802 L194.6051,447.0358 L194.4027,449.2199 L193.6645,451.2933 L193.2256,453.4286 L193.4361,453.468 L192.5722,455.5258 L192.1146,457.6596 L192.2505,459.9045 L191.2936,461.9449 L191.2184,464.1503 L191.4507,464.1896 L190.9491,466.3165 L190.3688,468.4301 L189.966,470.5737 L189.9732,472.7867 L189.4002,474.9015 L189.2632,474.8806 L189.3437,477.0952 L188.4925,479.1681 L188.7008,481.4021 L188.3125,483.5454 L187.7635,485.6642 L187.8759,485.6795 L187.4926,487.8185 L187.5117,490.0121 L187.1673,492.1564 L186.6709,494.28 L186.3007,496.4207 L186.424,496.4356 L185.9816,498.5599 L186.1115,500.7534 L185.5941,502.8686 L185.343,505.0161 L185.0044,507.1529 L184.7242,507.125 L184.393,511.3984 L184.3995,515.7054 L183.9282,519.9648 L183.2858,524.2071 L182.8808,528.4731 L182.7321,528.4622 L182.47,532.6674 L181.9446,536.8532 L182.1432,541.0924 L181.9835,545.3051 L181.3323,549.4816 L181.5757,549.4939 L181.4469,553.6085 L180.8556,557.6999 L180.7524,561.8158 L180.3261,565.9155 L180.2985,570.0352 L180.43,570.039 L180.2968,574.0296 L180.3224,578.0248 L179.8446,582.0054 L179.7728,585.9978 L179.7191,589.9907 L179.9244,589.9926 L179.9446,593.836 L179.4076,597.674 L179.518,601.5182 L179.6398,605.3626 L179.5336,609.2047 L179.2508,609.2024 L179.7268,612.8719 L179.7123,616.5375 L179.5758,620.202 L179.718,623.8688 L179.6817,627.5342 L180.019,627.5424 L179.6212,630.991 L179.9961,634.4584 L180.0668,637.9184 L180.0724,641.3769 L180.1031,644.8359 L180.1683,644.8385 L180.2824,648.0641 L180.068,651.2768 L180.2982,654.507 L180.397,657.732 L180.7373,660.9665 L180.7668,660.9681 L180.9354,663.932 L181.1268,666.8971 L181.0748,669.8492 L181.3354,672.818 L181.524,675.7829 L181.4684,675.7793 L181.9662,678.4723 L182.0726,681.1395 L181.827,683.7835 L182.1933,686.4679 L182.4028,689.1419 L182.1363,689.1212 L182.718,691.5038 L183.0478,693.8669 L183.2004,696.2163 L182.9301,698.5329 L183.3133,700.9001" fill="none" style="stroke:#333333;stroke-width:3.125;"/><polygon fill="#333333" points="183.8306,707.1287,183.8996,707.1527,184.3701,705.1438,185.2445,703.2757,185.9875,701.3617,186.2978,699.297,187.207,697.4409,187.1864,697.4235,186.3324,698.2447,185.5823,699.1538,184.9044,700.124,183.9778,700.8836,183.3995,701.9382,183.5237,702.0849,182.3586,701.0097,181.5562,700.3628,180.798,699.7682,179.7824,698.8695,178.9022,698.1308,178.923,698.1421,179.8782,699.925,180.928,701.7597,181.9321,703.5694,183.0233,705.4268,183.8306,707.1287" style="stroke:#333333;stroke-width:3.125;"/><text fill="#2E2E2E" font-family="Segoe Print" font-size="12.5" lengthAdjust="spacing" textLength="44.2017" x="193.8619" y="511.2752">creates</text></g><!--link UserServiceImpl to PasswordPolicyService--><g class="link" data-entity-1="UserServiceImpl" data-entity-2="PasswordPolicyService" data-source-line="26" data-uid="lnk18" id="link_UserServiceImpl_PasswordPolicyService"><path d="M398.3723,611.4099 L398.5192,611.6622 L389.2665,616.0463 L380.8748,621.9093 L372.2028,627.2907 L362.6086,631.0885 L354.2366,636.9851 L345.1766,641.7002 L336.3903,646.8855 L327.7945,652.3977 L318.5426,656.7834 L310.5965,663.4114 L300.9528,667.1241 L292.4388,672.7769 L284.0626,678.6664 L274.8845,683.1787 L266.1758,688.4973 L257.2895,693.5107 L248.6204,698.897 L239.6793,703.8165" fill="none" style="stroke:#333333;stroke-width:3.125;"/><polygon fill="#333333" points="234.2786,706.962,234.2865,707.0345,236.3025,706.5954,238.3651,706.5816,240.4126,706.4293,242.4101,705.8215,244.4767,705.8442,244.4698,705.8181,243.2994,705.4003,242.1637,705.1141,241.0522,704.9192,239.8574,704.4093,238.7792,704.3407,238.9651,704.3898,238.8683,703.1454,239.3142,702.0442,239.8263,700.9605,239.9532,699.7751,240.2827,698.6432,240.3019,698.6571,239.0729,700.3005,237.9313,702.007,236.7475,703.6831,235.6443,705.4173,234.2786,706.962" style="stroke:#333333;stroke-width:3.125;"/><text fill="#2E2E2E" font-family="Segoe Print" font-size="12.5" lengthAdjust="spacing" textLength="114.5996" x="345.9452" y="664.4002">uses for validation</text></g><!--SRC=[ZPF1Rjim38RlVWgklNJ173J6kcP5KI1rQw0x5SjwwKsL6Lk88naKdQ30pdk3dVUAUuJ9cPp8SLOCXY_a9_B_AUeTbxX2i4jaMRx6fk5AQOpiKkbQa5Z1Yv3BWaoZyzHKXk0qks-_W92LiFPsW4sppzbiW1dAaJpoARsykBmB46qO1uNkfzd7R425TPBq8fac1qHcDFlyP9QS9saKiU8AuQkIWd83iuPBcBCWHe8OvaXh9H5c94l5ABaXXBFrP3mPdx-F8gKTjX0EE7coI9w-_lO17kvkJa1O2C81_MN3m-2ZcyJ6ENWqbPAlNNuxeB3CmwgkV7HV9WZso_XWQylz9ZLweOg612kZe-YWB8oRUlpzfYUwtwCZ0WFzVXrmtCnH6H37lPPm1P9GCDet-Bs0_yAFoWbE7WxYhJEDHGiBjq9hKQdSJx9TBc1JWrdyOzW0ez6y9gKBk3M6Myh4FMGqSj0paebbpu15RchOA2vTNhXZAnUNK7jzKF-zQTJvTiUz6595oQsSWuLeTVp-zUFdBWx-vZg7tNflvUm4lhX7iZSCr5HkR4wEQsfHjizYfwT0ZTxqJjCV]--></g></svg>