<svg xmlns="http://www.w3.org/2000/svg" xmlns:xlink="http://www.w3.org/1999/xlink" contentStyleType="text/css" data-diagram-type="CLASS" height="569.7917px" preserveAspectRatio="none" style="width:534px;height:569px;background:#FEFEFE;" version="1.1" viewBox="0 0 534 569" width="534.375px" zoomAndPan="magnify"><title>Ricardo Auth Starter - Service Architecture</title><defs/><g><rect fill="#FEFEFE" height="569.7917" style="stroke:none;stroke-width:1.0417;" width="534.375" x="0" y="0"/><g class="title" data-source-line="7"><polygon fill="none" points="25,20.8333,25,21.0523,35.4798,20.4017,45.9596,21.0347,56.4395,21.2497,66.9193,20.0902,77.3991,20.7524,87.8789,20.3891,98.3588,20.4339,108.8386,20.7623,119.3184,20.1132,129.7982,21.41,140.2781,20.1768,150.7579,20.6273,161.2377,21.2833,171.7175,20.744,182.1974,20.9044,192.6772,20.8001,203.157,21.0193,213.6368,21.0824,224.1167,21.4434,234.5965,21.5323,245.0763,21.5409,255.5561,21.0986,266.036,21.3162,276.5158,21.5648,286.9956,20.0821,297.4754,21.5401,307.9553,20.5245,318.4351,21.3894,328.9149,20.3177,339.3947,20.762,349.8746,21.6058,360.3544,20.7826,370.8342,20.943,381.314,21.1861,391.7939,21.2669,402.2737,20.8293,412.7535,21.1325,423.2333,20.2371,433.7132,21.1296,444.193,21.4044,454.6728,21.2964,465.1526,21.4719,475.6325,20.3301,486.1123,20.154,496.5921,20.186,507.0719,20.8333,507.0641,20.8144,507.6351,21.0144,508.341,21.5401,508.8165,21.5095,509.3834,21.6996,510.0182,22.0537,510.0914,22.0841,510.0484,22.5544,510.3398,23.1633,510.9586,23.9077,511.1343,24.4686,511.2386,25,512.0037,25,510.9034,35.1778,511.5711,45.3556,511.8536,55.5334,510.7465,65.7113,511.2386,75.8891,511.2079,75.8763,511.0349,76.4951,510.9595,77.1542,510.505,77.6563,510.4107,78.3076,510.0182,78.8354,509.9446,78.6577,509.339,78.8622,508.9066,79.4851,508.1552,79.3376,507.7288,79.9749,507.0719,80.0557,507.0719,80.271,496.5921,79.7767,486.1123,79.6872,475.6325,80.5336,465.1526,79.7439,454.6728,80.6723,444.193,79.48,433.7132,80.6989,423.2333,80.5602,412.7535,80.3109,402.2737,80.1049,391.7939,80.8126,381.314,80.6949,370.8342,80.2321,360.3544,80.3351,349.8746,79.9201,339.3947,80.802,328.9149,80.2171,318.4351,80.2355,307.9553,79.422,297.4754,79.6336,286.9956,80.6086,276.5158,80.5034,266.036,80.011,255.5561,79.7202,245.0763,79.8277,234.5965,79.341,224.1167,80.4878,213.6368,80.8261,203.157,80.6041,192.6772,80.7796,182.1974,79.9133,171.7175,80.1466,161.2377,79.652,150.7579,80.3516,140.2781,80.3128,129.7982,80.6312,119.3184,79.8165,108.8386,79.9157,98.3588,80.5177,87.8789,80.6467,77.3991,79.5219,66.9193,79.8538,56.4395,80.2112,45.9596,79.4194,35.4798,80.4239,25,80.0557,25.0343,80.1385,24.3974,79.7793,23.8404,79.6132,23.3291,79.5573,22.6014,78.9791,22.0537,78.8354,22.1548,78.8772,21.9013,78.2841,21.6027,77.6722,21.3667,77.0863,21.1138,76.4934,20.8333,75.8891,20.1832,75.8891,20.4158,65.7113,20.3526,55.5334,20.8998,45.3556,20.9251,35.1778,20.8333,25,20.8852,25.0215,20.9841,24.3721,21.2998,23.8125,21.527,23.2163,21.9947,22.7196,22.0537,22.0537,22.1104,22.1906,22.5785,21.6539,23.2225,21.5422,23.7448,21.1363,24.4491,21.1699,25,20.8333" style="stroke:#4D4D4D;stroke-width:1.0417;"/><text fill="#2E2E2E" font-family="Segoe Print" font-size="20.8333" font-weight="bold" lengthAdjust="spacing" textLength="467.4886" x="32.2917" y="58.2825">Ricardo Auth Starter - Service Architecture</text></g><!--class UserService--><g class="entity" data-entity="UserService" data-source-line="9" data-uid="ent0002" id="entity_UserService"><polygon fill="none" points="276.3796,379.0141,276.3796,379.233,286.7695,378.5825,297.1594,379.2154,307.5493,379.4304,317.9392,378.271,328.3291,378.9331,338.719,378.5698,349.1089,378.6146,359.4988,378.9431,369.8887,378.2939,380.2786,379.5908,390.6685,378.3575,401.0583,378.8081,411.4482,379.464,421.8381,379.0141,421.8267,378.9866,422.4364,379.28,423.0124,379.492,423.6296,379.8036,424.2269,380.0671,424.7844,380.2345,424.9723,380.3123,425.2437,380.9129,425.4905,381.5032,425.5983,382.0361,425.9094,382.6531,426.0048,383.1807,426.7363,383.1807,425.2536,393.0077,426.7116,402.8347,425.6959,412.6616,426.5608,422.4886,426.0048,432.3156,425.846,432.2498,425.7387,432.8957,425.7545,433.5926,425.2569,434.0769,425.0623,434.6866,424.7844,435.2619,424.8294,435.3705,424.2505,435.6395,423.6054,435.7488,423.0548,436.0862,422.3513,436.0545,421.8381,436.4822,421.8381,436.7785,411.4482,437.0533,401.0583,436.9453,390.6685,437.1208,380.2786,435.979,369.8887,435.8029,359.4988,435.8349,349.1089,436.4209,338.719,436.2775,328.3291,437.192,317.9392,436.3003,307.5493,436.1249,297.1594,436.72,286.7695,435.7876,276.3796,436.4822,276.3107,436.3157,275.8766,436.4463,275.259,436.1338,274.7095,435.9856,273.9799,435.4027,273.4334,435.2619,273.5358,435.3043,273.3787,434.751,272.7937,434.0206,272.6704,433.4813,272.4975,432.9216,272.213,432.3156,272.8919,432.3156,272.2086,422.4886,272.6948,412.6616,271.6361,402.8347,271.5075,393.0077,272.213,383.1807,272.3745,383.2477,272.2271,382.4962,272.8644,382.0699,273.0115,381.4404,273.1033,380.7881,273.4334,380.2345,273.3864,380.121,274.0836,380.1376,274.5721,379.6503,275.2798,379.6921,275.7169,379.0808,276.3796,379.0141" style="stroke:#333333;stroke-width:1.0417;"/><polygon fill="none" points="297.2705,401.9486,295.7436,404.0349,293.9376,407.0907,291.3547,409.15,288.6404,410.2762,286.4762,410.3739,283.6947,408.9655,281.0701,408.0454,279.0781,406.1773,278.0331,404.0387,277.4134,402.3358,276.8063,400.1115,275.8209,398.1975,276.5782,396.3287,277.2416,394.2815,279.7313,392.6624,281.4828,390.5617,283.6509,389.8641,286.2282,389.2634,289.5334,389.6203,291.3437,390.474,293.4485,390.861,296.0077,393.483,296.8998,396.251,297.2874,398.1396,296.8484,401.2518" style="stroke:#C6303E;stroke-width:1.0417;"/><path d="M288.0496,397.4291 L288.0496,402.3282 L289.3191,402.3282 Q289.7586,402.3282 289.9539,402.5073 Q290.1492,402.67 290.1492,402.963 Q290.1492,403.2397 289.9539,403.4187 Q289.7586,403.5815 289.3191,403.5815 L285.5268,403.5815 Q285.0873,403.5815 284.892,403.4187 Q284.6967,403.2397 284.6967,402.9467 Q284.6967,402.67 284.892,402.5073 Q285.0873,402.3282 285.5268,402.3282 L286.7963,402.3282 L286.7963,397.4291 L285.5268,397.4291 Q285.0873,397.4291 284.892,397.2664 Q284.6967,397.0874 284.6967,396.8107 Q284.6967,396.5177 284.892,396.3549 Q285.0873,396.1759 285.5268,396.1759 L289.3191,396.1759 Q289.7586,396.1759 289.9539,396.3549 Q290.1492,396.5177 290.1492,396.8107 Q290.1492,397.0874 289.9539,397.2664 Q289.7586,397.4291 289.3191,397.4291 L288.0496,397.4291 Z " fill="#2E2E2E"/><text fill="#555555" font-family="Segoe Print" font-size="11.4583" font-style="italic" lengthAdjust="spacing" textLength="65.9805" x="305.5463" y="403.7257">UserService</text><polygon fill="none" points="385.0685,375.8891,385.0685,375.9621,393.8808,375.7452,402.693,375.9562,411.5053,376.0279,420.3175,375.6414,429.1298,375.8891,429.1028,375.8891,428.9817,382.7458,428.9966,389.6025,429.1061,396.4591,428.8897,403.3158,429.1298,410.1725,429.1298,410.3648,420.3175,409.9537,411.5053,410.1039,402.693,410.3225,393.8808,410.1427,385.0685,410.1725,385.0922,410.1725,385.0574,403.3158,385.1305,396.4591,385.1515,389.6025,385.2719,382.7458,385.0685,375.8891" style="stroke:#333333;stroke-width:1.0417;stroke-dasharray:2.0,2.0;"/><text fill="#555555" font-family="Segoe Print" font-size="12.5" font-style="italic" lengthAdjust="spacing" textLength="31.5613" x="391.3185" y="397.7336">T, ID</text><path d="M273.2546,419.8156 L273.2546,420.1075 L283.3685,419.2401 L293.4824,420.084 L303.5963,420.3707 L313.7102,418.8247 L323.8241,419.7076 L333.938,419.2232 L344.0519,419.2829 L354.1658,419.7209 L364.2797,418.8553 L374.3936,420.5845 L384.5075,418.9402 L394.6214,419.5409 L404.7353,420.4155 L414.8492,419.6964 L424.9631,419.8156" fill="none" style="stroke:#333333;stroke-width:1.0417;"/><path d="M273.2546,428.1489 L273.2546,428.4408 L283.3685,427.5735 L293.4824,428.4174 L303.5963,428.704 L313.7102,427.1581 L323.8241,428.041 L333.938,427.5566 L344.0519,427.6163 L354.1658,428.0542 L364.2797,427.1887 L374.3936,428.9179 L384.5075,427.2735 L394.6214,427.8742 L404.7353,428.7488 L414.8492,428.0298 L424.9631,428.1489" fill="none" style="stroke:#333333;stroke-width:1.0417;"/></g><!--class JwtService--><g class="entity" data-entity="JwtService" data-source-line="10" data-uid="ent0003" id="entity_JwtService"><polygon fill="none" points="134.713,379.0141,134.713,379.233,145.3879,378.5825,156.0629,379.2154,166.7378,379.4304,177.4127,378.271,188.0877,378.9331,198.7626,378.5698,209.4375,378.6146,220.1125,378.9431,230.7874,379.0141,230.6955,378.7923,231.4502,379.4358,231.8822,379.3,232.5289,379.6829,233.2018,380.129,233.7337,380.2345,233.7062,380.2231,233.9997,380.8328,234.2116,381.4087,234.5232,382.026,234.7867,382.6233,234.9541,383.1807,235.5642,383.1807,235.6531,393.0077,235.6616,402.8347,235.2193,412.6616,235.437,422.4886,234.9541,432.3156,235.1793,432.4089,234.4786,432.809,234.6836,433.5842,234.1267,434.0439,234.149,434.7435,233.7337,435.2619,233.6679,435.1031,233.1353,435.484,232.6537,435.9879,231.9594,435.9784,231.3907,436.2719,230.7874,436.4822,230.7874,436.835,220.1125,436.9158,209.4375,436.4782,198.7626,436.7814,188.0877,435.886,177.4127,436.7785,166.7378,437.0533,156.0629,436.9453,145.3879,437.1208,134.713,436.4822,134.6488,436.3273,134.0371,436.0289,133.4519,435.7947,132.9374,435.7311,132.3298,435.4429,131.7667,435.2619,131.9853,435.3524,131.4666,434.6494,131.1685,434.0378,131.1077,433.5244,130.5765,432.8162,130.5463,432.3156,130.0056,432.3156,131.2223,422.4886,131.0001,412.6616,131.3114,402.8347,130.2111,393.0077,130.5463,383.1807,130.6487,383.2232,130.9798,382.6699,130.8829,381.9395,131.2478,381.4002,131.563,380.8405,131.7667,380.2345,131.8533,380.4435,132.3554,379.989,133.0067,379.8947,133.4609,379.3246,134.0337,379.0409,134.713,379.0141" style="stroke:#333333;stroke-width:1.0417;"/><polygon fill="none" points="155.6039,401.9486,154.077,404.0349,152.2709,407.0907,149.688,409.15,146.9738,410.2762,144.8096,410.3739,142.028,408.9655,139.4035,408.0454,137.4114,406.1773,136.3665,404.0387,135.7468,402.3358,135.1397,400.1115,134.1543,398.1975,134.9115,396.3287,135.5749,394.2815,138.0646,392.6624,139.8162,390.5617,141.9842,389.8641,144.5616,389.2634,147.8668,389.6203,149.6771,390.474,151.7818,390.861,154.341,393.483,155.2331,396.251,155.6207,398.1396,155.1817,401.2518" style="stroke:#C6303E;stroke-width:1.0417;"/><path d="M146.3829,397.4291 L146.3829,402.3282 L147.6524,402.3282 Q148.0919,402.3282 148.2872,402.5073 Q148.4825,402.67 148.4825,402.963 Q148.4825,403.2397 148.2872,403.4187 Q148.0919,403.5815 147.6524,403.5815 L143.8601,403.5815 Q143.4207,403.5815 143.2254,403.4187 Q143.03,403.2397 143.03,402.9467 Q143.03,402.67 143.2254,402.5073 Q143.4207,402.3282 143.8601,402.3282 L145.1296,402.3282 L145.1296,397.4291 L143.8601,397.4291 Q143.4207,397.4291 143.2254,397.2664 Q143.03,397.0874 143.03,396.8107 Q143.03,396.5177 143.2254,396.3549 Q143.4207,396.1759 143.8601,396.1759 L147.6524,396.1759 Q148.0919,396.1759 148.2872,396.3549 Q148.4825,396.5177 148.4825,396.8107 Q148.4825,397.0874 148.2872,397.2664 Q148.0919,397.4291 147.6524,397.4291 L146.3829,397.4291 Z " fill="#2E2E2E"/><text fill="#555555" font-family="Segoe Print" font-size="11.4583" font-style="italic" lengthAdjust="spacing" textLength="62.7411" x="163.8796" y="403.7257">JwtService</text><path d="M131.588,419.8156 L131.588,420.1075 L141.8204,419.2401 L152.0529,420.084 L162.2853,420.3707 L172.5178,418.8247 L182.7502,419.7076 L192.9826,419.2232 L203.2151,419.2829 L213.4475,419.7209 L223.68,418.8553 L233.9124,419.8156" fill="none" style="stroke:#333333;stroke-width:1.0417;"/><path d="M131.588,428.1489 L131.588,428.4408 L141.8204,427.5735 L152.0529,428.4174 L162.2853,428.704 L172.5178,427.1581 L182.7502,428.041 L192.9826,427.5566 L203.2151,427.6163 L213.4475,428.0542 L223.68,427.1887 L233.9124,428.1489" fill="none" style="stroke:#333333;stroke-width:1.0417;"/></g><!--class UserServiceImpl--><g class="entity" data-entity="UserServiceImpl" data-source-line="11" data-uid="ent0004" id="entity_UserServiceImpl"><polygon fill="none" points="287.838,499.8474,287.838,500.0664,298.2887,499.4158,308.7394,500.0488,319.1901,500.2637,329.6408,499.1043,340.0915,499.7665,350.5422,499.4031,360.9929,499.4479,371.4436,499.7764,381.8943,499.1272,392.345,500.4241,402.7957,499.1909,413.2464,499.8474,413.2201,499.784,413.8931,500.2301,414.4135,500.3081,415.0232,500.6015,415.5992,500.8135,416.1927,501.0678,416.25,501.0915,416.5135,501.6888,416.8687,502.3241,417.1402,502.9247,417.3869,503.5151,417.4131,504.0141,417.6783,504.0141,417.896,513.841,418.1446,523.668,416.6618,533.495,418.1199,543.3219,417.4131,553.1489,417.318,553.1095,417.3402,553.8091,416.7661,554.2616,416.6589,554.9076,416.6747,555.6045,416.1927,556.0952,416.1862,556.0796,415.6174,556.373,415.0592,556.692,414.4802,556.9609,413.8351,557.0702,413.2464,557.3156,413.2464,557.6148,402.7957,556.7193,392.345,557.6118,381.8943,557.8866,371.4436,557.7786,360.9929,557.9541,350.5422,556.8124,340.0915,556.6362,329.6408,556.6683,319.1901,557.2542,308.7394,557.1109,298.2887,558.0254,287.838,557.3156,287.8148,557.2595,287.2031,556.9614,286.6898,556.9006,285.9816,556.3694,285.412,556.1727,284.8917,556.0952,285.0999,556.1814,284.7874,555.5638,284.6392,555.0143,284.0562,554.2847,284.0178,553.7806,283.6713,553.1489,284.2863,553.1489,283.1792,543.3219,283.5715,533.495,283.8025,523.668,284.3502,513.841,283.6713,504.0141,283.67,504.0135,284.0638,503.4863,283.9818,502.762,284.1863,502.1563,284.8092,501.724,284.8917,501.0678,284.7964,500.8378,285.5486,500.987,286.0977,500.6459,286.6239,500.2496,287.2017,499.978,287.838,499.8474" style="stroke:#333333;stroke-width:1.0417;"/><polygon fill="none" points="308.7289,522.7819,307.202,524.8682,305.3959,527.924,302.813,529.9834,300.0988,531.1095,297.9346,531.2073,295.153,529.7989,292.5285,528.8788,290.5364,527.0106,289.4915,524.872,288.8718,523.1691,288.2647,520.9448,287.2793,519.0308,288.0365,517.162,288.6999,515.1148,291.1896,513.4958,292.9412,511.395,295.1092,510.6974,297.6866,510.0967,300.9918,510.4536,302.8021,511.3074,304.9068,511.6944,307.466,514.3163,308.3581,517.0843,308.7457,518.9729,308.3067,522.0852" style="stroke:#4D4D4D;stroke-width:1.0417;"/><path d="M299.8009,517.3347 Q299.9148,517.172 300.045,517.0906 Q300.1915,517.0092 300.3543,517.0092 Q300.631,517.0092 300.7937,517.2045 Q300.9727,517.3999 300.9727,517.8393 L300.9727,518.9135 Q300.9727,519.353 300.7937,519.5483 Q300.631,519.7436 300.3543,519.7436 Q300.0938,519.7436 299.9474,519.5971 Q299.8009,519.4669 299.7195,519.0763 Q299.6869,518.8159 299.5567,518.6857 Q299.2963,518.409 298.8406,518.2462 Q298.4011,518.0834 297.9454,518.0834 Q297.392,518.0834 296.92,518.3276 Q296.448,518.5717 296.0899,519.1251 Q295.7319,519.6622 295.7319,520.4272 L295.7319,521.241 Q295.7319,522.1362 296.3829,522.7384 Q297.0502,523.3406 298.2058,523.3406 Q298.9057,523.3406 299.394,523.1616 Q299.6707,523.0476 299.9799,522.7221 Q300.1752,522.5268 300.2892,522.478 Q300.4031,522.4129 300.5333,522.4129 Q300.7937,522.4129 300.9727,522.6082 Q301.1681,522.7872 301.1681,523.0476 Q301.1681,523.3081 300.9076,523.601 Q300.5333,524.0242 299.9474,524.2683 Q299.1661,524.5939 298.2221,524.5939 Q297.099,524.5939 296.2201,524.1381 Q295.4877,523.7801 294.9832,522.9825 Q294.4786,522.185 294.4786,521.2573 L294.4786,520.4109 Q294.4786,519.4344 294.9343,518.588 Q295.3901,517.7416 296.1876,517.2859 Q297.0014,516.8302 297.8966,516.8302 Q298.45,516.8302 298.922,516.9604 Q299.394,517.0743 299.8009,517.3347 Z " fill="#2E2E2E"/><text fill="#555555" font-family="Segoe Print" font-size="11.4583" lengthAdjust="spacing" textLength="92.0751" x="317.0046" y="524.559">UserServiceImpl</text><path d="M284.713,540.6489 L284.713,540.9408 L294.8406,540.0735 L304.9681,540.9174 L315.0957,541.204 L325.2233,539.6581 L335.3508,540.541 L345.4784,540.0566 L355.606,540.1163 L365.7336,540.5542 L375.8611,539.6887 L385.9887,541.4179 L396.1163,539.7735 L406.2438,540.3742 L416.3714,540.6489" fill="none" style="stroke:#333333;stroke-width:1.0417;"/><path d="M284.713,548.9822 L284.713,549.2742 L294.8406,548.4068 L304.9681,549.2507 L315.0957,549.5373 L325.2233,547.9914 L335.3508,548.8743 L345.4784,548.3899 L355.606,548.4496 L365.7336,548.8876 L375.8611,548.022 L385.9887,549.7512 L396.1163,548.1068 L406.2438,548.7076 L416.3714,548.9822" fill="none" style="stroke:#333333;stroke-width:1.0417;"/></g><!--class JwtServiceImpl--><g class="entity" data-entity="JwtServiceImpl" data-source-line="12" data-uid="ent0005" id="entity_JwtServiceImpl"><polygon fill="none" points="120.6505,499.8474,120.6505,500.0664,130.8312,499.4158,141.012,500.0488,151.1927,500.2637,161.3735,499.1043,171.5542,499.7665,181.735,499.4031,191.9157,499.4479,202.0965,499.7764,212.2772,499.1272,222.458,500.4241,232.6387,499.1909,242.8195,499.8474,242.7932,499.784,243.4661,500.2301,243.9866,500.3081,244.5963,500.6015,245.1722,500.8135,245.7657,501.0678,245.823,501.0915,246.0865,501.6888,246.4418,502.3241,246.7132,502.9247,246.96,503.5151,246.9861,504.0141,247.2514,504.0141,247.469,513.841,247.7176,523.668,246.2349,533.495,247.6929,543.3219,246.9861,553.1489,246.891,553.1095,246.9133,553.8091,246.3392,554.2616,246.2319,554.9076,246.2477,555.6045,245.7657,556.0952,245.7593,556.0796,245.1905,556.373,244.6322,556.692,244.0533,556.9609,243.4082,557.0702,242.8195,557.3156,242.8195,557.6148,232.6387,556.7193,222.458,557.6118,212.2772,557.8866,202.0965,557.7786,191.9157,557.9541,181.735,556.8124,171.5542,556.6362,161.3735,556.6683,151.1927,557.2542,141.012,557.1109,130.8312,558.0254,120.6505,557.3156,120.6273,557.2595,120.0156,556.9614,119.5023,556.9006,118.7941,556.3694,118.2245,556.1727,117.7042,556.0952,117.9124,556.1814,117.5999,555.5638,117.4517,555.0143,116.8687,554.2847,116.8303,553.7806,116.4838,553.1489,117.0988,553.1489,115.9917,543.3219,116.384,533.495,116.615,523.668,117.1627,513.841,116.4838,504.0141,116.4825,504.0135,116.8763,503.4863,116.7943,502.762,116.9988,502.1563,117.6217,501.724,117.7042,501.0678,117.6089,500.8378,118.3611,500.987,118.9102,500.6459,119.4364,500.2496,120.0142,499.978,120.6505,499.8474" style="stroke:#333333;stroke-width:1.0417;"/><polygon fill="none" points="141.5414,522.7819,140.0145,524.8682,138.2084,527.924,135.6255,529.9834,132.9113,531.1095,130.7471,531.2073,127.9655,529.7989,125.341,528.8788,123.3489,527.0106,122.304,524.872,121.6843,523.1691,121.0772,520.9448,120.0918,519.0308,120.849,517.162,121.5124,515.1148,124.0021,513.4958,125.7537,511.395,127.9217,510.6974,130.4991,510.0967,133.8043,510.4536,135.6146,511.3074,137.7193,511.6944,140.2785,514.3163,141.1706,517.0843,141.5582,518.9729,141.1192,522.0852" style="stroke:#4D4D4D;stroke-width:1.0417;"/><path d="M132.6134,517.3347 Q132.7273,517.172 132.8575,517.0906 Q133.004,517.0092 133.1668,517.0092 Q133.4435,517.0092 133.6062,517.2045 Q133.7852,517.3999 133.7852,517.8393 L133.7852,518.9135 Q133.7852,519.353 133.6062,519.5483 Q133.4435,519.7436 133.1668,519.7436 Q132.9063,519.7436 132.7599,519.5971 Q132.6134,519.4669 132.532,519.0763 Q132.4994,518.8159 132.3692,518.6857 Q132.1088,518.409 131.6531,518.2462 Q131.2136,518.0834 130.7579,518.0834 Q130.2045,518.0834 129.7325,518.3276 Q129.2605,518.5717 128.9024,519.1251 Q128.5444,519.6622 128.5444,520.4272 L128.5444,521.241 Q128.5444,522.1362 129.1954,522.7384 Q129.8627,523.3406 131.0183,523.3406 Q131.7182,523.3406 132.2065,523.1616 Q132.4832,523.0476 132.7924,522.7221 Q132.9877,522.5268 133.1017,522.478 Q133.2156,522.4129 133.3458,522.4129 Q133.6062,522.4129 133.7852,522.6082 Q133.9806,522.7872 133.9806,523.0476 Q133.9806,523.3081 133.7201,523.601 Q133.3458,524.0242 132.7599,524.2683 Q131.9786,524.5939 131.0346,524.5939 Q129.9115,524.5939 129.0326,524.1381 Q128.3002,523.7801 127.7957,522.9825 Q127.2911,522.185 127.2911,521.2573 L127.2911,520.4109 Q127.2911,519.4344 127.7468,518.588 Q128.2026,517.7416 129.0001,517.2859 Q129.8139,516.8302 130.7091,516.8302 Q131.2625,516.8302 131.7345,516.9604 Q132.2065,517.0743 132.6134,517.3347 Z " fill="#2E2E2E"/><text fill="#555555" font-family="Segoe Print" font-size="11.4583" lengthAdjust="spacing" textLength="88.8357" x="149.8171" y="524.559">JwtServiceImpl</text><path d="M117.5255,540.6489 L117.5255,540.9408 L128.2271,540.0735 L138.9286,540.9174 L149.6302,541.204 L160.3318,539.6581 L171.0334,540.541 L181.735,540.0566 L192.4366,540.1163 L203.1381,540.5542 L213.8397,539.6887 L224.5413,541.4179 L235.2429,539.7735 L245.9445,540.6489" fill="none" style="stroke:#333333;stroke-width:1.0417;"/><path d="M117.5255,548.9822 L117.5255,549.2742 L128.2271,548.4068 L138.9286,549.2507 L149.6302,549.5373 L160.3318,547.9914 L171.0334,548.8743 L181.735,548.3899 L192.4366,548.4496 L203.1381,548.8876 L213.8397,548.022 L224.5413,549.7512 L235.2429,548.1068 L245.9445,548.9822" fill="none" style="stroke:#333333;stroke-width:1.0417;"/></g><!--class AuthAutoConfiguration--><g class="entity" data-entity="AuthAutoConfiguration" data-source-line="13" data-uid="ent0006" id="entity_AuthAutoConfiguration"><polygon fill="none" points="181.0671,225.8891,181.0671,226.108,191.5718,225.4575,202.0765,226.0904,212.5812,226.3054,223.0859,225.146,233.5906,225.8081,244.0953,225.4448,254.6,225.4896,265.1047,225.8181,275.6094,225.1689,286.1141,226.4658,296.6187,225.2325,307.1234,225.6831,317.6281,226.339,328.1328,225.7997,338.6375,225.9602,349.1422,225.8891,349.138,225.8788,349.7552,226.1904,350.3525,226.4539,350.9878,226.8092,351.5884,227.0807,352.0885,227.1095,352.3064,227.1997,352.4142,227.7326,352.7253,228.3496,353.046,228.9705,352.8334,229.3707,353.3089,230.0557,354.0157,230.0557,353,239.8827,353.8649,249.7097,352.7932,259.5366,353.2375,269.3636,353.3089,279.1906,353.5468,279.2891,353.0492,279.7734,352.8545,280.3831,352.6853,281.0033,352.4661,281.6029,352.0885,282.1369,352.088,282.1356,351.5374,282.4731,350.8339,282.4414,350.3585,282.9603,349.8043,283.289,349.1422,283.3572,349.1422,283.8203,338.6375,283.9958,328.1328,282.854,317.6281,282.6779,307.1234,282.7099,296.6187,283.2959,286.1141,283.1525,275.6094,284.067,265.1047,283.1753,254.6,282.9999,244.0953,283.595,233.5906,282.6626,223.0859,282.8165,212.5812,284.0332,202.0765,283.8111,191.5718,284.1223,181.0671,283.3572,181.0244,283.254,180.5203,283.2156,179.9671,283.0585,179.2366,282.4735,178.6974,282.3502,178.1209,282.1369,178.1613,282.1536,178.0859,281.6342,177.6314,280.9578,177.537,280.4305,176.9669,279.7062,176.9005,279.1906,176.195,279.1906,177.4251,269.3636,176.1537,259.5366,177.4307,249.7097,177.1157,239.8827,176.9005,230.0557,176.8145,230.0201,177.0311,229.4195,177.5358,228.9382,177.5367,228.2482,178.0667,227.7774,178.1209,227.1095,178.0474,226.9322,178.7922,227.0635,179.3637,226.7767,179.9212,226.4558,180.4842,226.1483,181.0671,225.8891" style="stroke:#333333;stroke-width:1.0417;"/><polygon fill="none" points="201.958,248.8236,200.4311,250.9099,198.6251,253.9657,196.0422,256.025,193.3279,257.1512,191.1637,257.2489,188.3822,255.8405,185.7576,254.9204,183.7656,253.0523,182.7206,250.9137,182.1009,249.2108,181.4938,246.9865,180.5084,245.0725,181.2657,243.2037,181.9291,241.1565,184.4188,239.5374,186.1703,237.4367,188.3384,236.7391,190.9157,236.1384,194.2209,236.4953,196.0312,237.349,198.136,237.736,200.6952,240.358,201.5873,243.126,201.9749,245.0146,201.5359,248.1268" style="stroke:#4D4D4D;stroke-width:1.0417;"/><path d="M193.03,243.3764 Q193.144,243.2137 193.2742,243.1323 Q193.4207,243.0509 193.5834,243.0509 Q193.8601,243.0509 194.0229,243.2462 Q194.2019,243.4415 194.2019,243.881 L194.2019,244.9552 Q194.2019,245.3946 194.0229,245.59 Q193.8601,245.7853 193.5834,245.7853 Q193.323,245.7853 193.1765,245.6388 Q193.03,245.5086 192.9487,245.118 Q192.9161,244.8575 192.7859,244.7273 Q192.5255,244.4506 192.0698,244.2879 Q191.6303,244.1251 191.1746,244.1251 Q190.6212,244.1251 190.1492,244.3693 Q189.6772,244.6134 189.3191,245.1668 Q188.961,245.7039 188.961,246.4689 L188.961,247.2827 Q188.961,248.1778 189.6121,248.7801 Q190.2794,249.3823 191.435,249.3823 Q192.1349,249.3823 192.6231,249.2032 Q192.8998,249.0893 193.2091,248.7638 Q193.4044,248.5685 193.5183,248.5196 Q193.6323,248.4545 193.7625,248.4545 Q194.0229,248.4545 194.2019,248.6499 Q194.3972,248.8289 194.3972,249.0893 Q194.3972,249.3497 194.1368,249.6427 Q193.7625,250.0659 193.1765,250.31 Q192.3953,250.6355 191.4513,250.6355 Q190.3282,250.6355 189.4493,250.1798 Q188.7169,249.8217 188.2123,249.0242 Q187.7078,248.2267 187.7078,247.2989 L187.7078,246.4526 Q187.7078,245.476 188.1635,244.6297 Q188.6192,243.7833 189.4168,243.3276 Q190.2306,242.8719 191.1257,242.8719 Q191.6791,242.8719 192.1511,243.0021 Q192.6231,243.116 193.03,243.3764 Z " fill="#2E2E2E"/><text fill="#555555" font-family="Segoe Print" font-size="11.4583" lengthAdjust="spacing" textLength="134.7417" x="210.2338" y="250.6007">AuthAutoConfiguration</text><path d="M177.9421,266.6906 L177.9421,266.9825 L188.1966,266.1151 L198.451,266.959 L208.7054,267.2457 L218.9598,265.6997 L229.2142,266.5826 L239.4686,266.0982 L249.7231,266.1579 L259.9775,266.5959 L270.2319,265.7303 L280.4863,267.4595 L290.7407,265.8152 L300.9951,266.4159 L311.2495,267.2905 L321.504,266.5714 L331.7584,266.7853 L342.0128,266.6462 L352.2672,266.6906" fill="none" style="stroke:#333333;stroke-width:1.0417;"/><path d="M177.9421,275.0239 L177.9421,275.3158 L188.1966,274.4485 L198.451,275.2924 L208.7054,275.579 L218.9598,274.0331 L229.2142,274.916 L239.4686,274.4316 L249.7231,274.4913 L259.9775,274.9292 L270.2319,274.0637 L280.4863,275.7929 L290.7407,274.1485 L300.9951,274.7492 L311.2495,275.6238 L321.504,274.9048 L331.7584,275.1187 L342.0128,274.9795 L352.2672,275.0239" fill="none" style="stroke:#333333;stroke-width:1.0417;"/></g><g class="entity" data-entity="GMN13" data-source-line="21" data-uid="ent0014" id="entity_GMN13"><path d="M146.6921,101.9307 L147.276,101.9307 L145.5413,113.1441 L147.2291,124.3575 L147.8024,135.5709 L144.7105,146.7843 L146.6921,157.9976 L150.8588,162.1643 L150.8588,161.9484 L160.8493,160.9796 L170.8399,161.099 L180.8304,161.975 L190.8209,160.2438 L200.8115,163.7022 L210.802,160.4135 L220.7925,161.615 L230.7831,163.3642 L240.7736,161.926 L250.7641,162.3539 L260.7546,162.1643 L260.6661,162.1585 L261.9439,172.8071 L262.8064,183.4284 L264.4614,194.1017 L265.3925,204.7276 L266.1097,215.3394 L264.9213,225.8266 L265.6271,225.8728 L266.9007,215.3003 L268.2567,204.7332 L265.0056,193.8646 L269.5798,183.5082 L267.5717,172.7209 L269.088,162.1643 L269.088,163.6471 L279.0615,160.7892 L289.035,161.974 L299.0085,164.2243 L308.982,162.0289 L318.9556,162.4568 L328.9291,163.1049 L338.9026,163.3205 L348.8761,162.1535 L358.8496,162.9621 L368.8231,160.5743 L378.7966,162.1643 L382.9633,157.9976 L383.7533,157.9976 L384.4861,148.0343 L384.1981,138.0709 L384.6662,128.1075 L381.6214,118.1441 L382.9633,108.1807 L382.5363,107.7537 L380.4731,105.6906 L378.7581,103.9755 L376.5846,101.8021 L375.0761,100.2936 L372.5466,97.7641 L372.5466,97.2789 L361.9901,96.8112 L351.4335,98.3982 L340.877,95.9117 L330.3204,96.3221 L319.7638,99.5667 L309.2073,98.9743 L298.6507,99.8043 L288.0941,96.8702 L277.5376,98.6507 L266.981,99.4041 L256.4244,96.4518 L245.8679,97.4978 L235.3113,98.114 L224.7548,99.5745 L214.1982,97.7524 L203.6416,99.049 L193.0851,96.2258 L182.5285,95.8828 L171.9719,99.163 L161.4154,95.7726 L150.8588,97.7641 L146.6921,101.9307" fill="#88A4DD" style="stroke:#2C5282;stroke-width:1.0417;"/><path d="M372.5466,97.7641 L372.7413,97.7641 L372.163,99.4307 L372.7256,101.0974 L372.9167,102.7641 L371.8861,104.4307 L372.5466,106.0974 L374.63,108.1807 L374.63,108.1088 L376.2966,107.7858 L377.9633,107.8257 L379.63,108.1176 L381.2966,107.5406 L382.9633,108.1807 L383.3258,108.5432 L380.4673,105.6847 L378.6672,103.8846 L376.9961,102.2136 L374.5738,99.7913 L372.5466,97.7641" fill="#88A4DD" style="stroke:#2C5282;stroke-width:1.0417;"/><text fill="#FFFFFF" font-family="Segoe Print" font-size="12.5" font-weight="bold" lengthAdjust="spacing" textLength="203.9795" x="158.1505" y="123.7752">Spring Boot Auto-Configuration</text><text fill="#FFFFFF" font-family="Segoe Print" font-size="12.5" lengthAdjust="spacing" textLength="159.1797" x="158.1505" y="145.5587">Zero-configuration setup</text></g><!--reverse link UserService to UserServiceImpl--><g class="link" data-entity-1="UserService" data-entity-2="UserServiceImpl" data-source-line="15" data-uid="lnk8" id="link_UserService_UserServiceImpl"><path d="M349.6999,455.2946 L349.7972,455.2955 L349.5878,464.191 L349.9488,473.0915 L350.124,481.9904 L349.6884,490.8839 L350.0984,499.7849" fill="none" style="stroke:#333333;stroke-width:3.125;stroke-dasharray:7.0,7.0;"/><polygon fill="none" points="349.5359,436.5453,349.6053,436.5678,348.1819,440.2618,347.1655,444.0876,346.0165,447.8704,344.4316,451.5122,343.4502,455.3493,343.4499,455.3223,345.9488,455.1793,348.4488,455.1724,350.9497,455.26,353.4477,455.0218,355.9497,455.2399,356.1315,455.3023,354.4599,451.43,353.3192,447.7398,352.2433,444.0718,350.7905,440.2746,349.5359,436.5453" style="stroke:#333333;stroke-width:3.125;"/></g><!--reverse link JwtService to JwtServiceImpl--><g class="link" data-entity-1="JwtService" data-entity-2="JwtServiceImpl" data-source-line="16" data-uid="lnk10" id="link_JwtService_JwtServiceImpl"><path d="M182.226,455.2946 L182.3234,455.2955 L181.9545,464.191 L182.1561,473.0915 L182.172,481.9904 L181.577,490.8839 L181.8276,499.7849" fill="none" style="stroke:#333333;stroke-width:3.125;stroke-dasharray:7.0,7.0;"/><polygon fill="none" points="182.3901,436.5453,182.4591,436.569,180.9712,440.2376,179.888,444.045,178.6731,447.8071,177.0247,451.4206,175.9763,455.2399,175.9761,455.213,178.4749,455.1137,180.9749,455.1505,183.4758,455.2819,185.9738,455.0874,188.4758,455.3493,188.6587,455.4085,187.0504,451.5211,185.9762,447.8066,184.9671,444.1131,183.5789,440.2969,182.3901,436.5453" style="stroke:#333333;stroke-width:3.125;"/></g><!--link AuthAutoConfiguration to UserService--><g class="link" data-entity-1="AuthAutoConfiguration" data-entity-2="UserService" data-source-line="17" data-uid="lnk11" id="link_AuthAutoConfiguration_UserService"><path d="M280.4005,283.2849 L280.6553,283.4273 L284.9163,291.9878 L290.6713,301.3828 L295.9397,310.5061 L299.6083,318.7356 L305.3973,328.1497 L309.9926,336.8969 L315.0629,345.9095 L320.4635,355.1066 L324.726,363.668 L330.5825,373.1197" fill="none" style="stroke:#333333;stroke-width:3.125;"/><polygon fill="#333333" points="333.6296,378.5766,333.7023,378.5832,333.2998,376.5202,333.3234,374.496,333.2082,372.4592,332.6367,370.3807,332.6968,368.3598,332.6709,368.3525,332.2331,369.4533,331.9261,370.5913,331.7102,371.755,331.1807,372.8299,331.0904,374.0292,331.1428,374.2141,329.8968,373.4973,328.8039,373.3205,327.7296,373.2096,326.5468,372.7154,325.421,372.4227,325.4352,372.4417,327.0561,373.6446,328.7417,374.9339,330.396,376.1815,332.1099,377.5085,333.6296,378.5766" style="stroke:#333333;stroke-width:3.125;"/><text fill="#2E2E2E" font-family="Segoe Print" font-size="12.5" lengthAdjust="spacing" textLength="44.2017" x="320.1296" y="336.2752">creates</text></g><!--link AuthAutoConfiguration to JwtService--><g class="link" data-entity-1="AuthAutoConfiguration" data-entity-2="JwtService" data-source-line="18" data-uid="lnk12" id="link_AuthAutoConfiguration_JwtService"><path d="M248.3796,283.2537 L248.4638,283.3025 L246.4234,286.2399 L244.8763,289.4637 L243.1686,292.5943 L240.9326,295.418 L239.4278,298.6664 L239.3965,298.6488 L237.4795,301.7224 L235.7205,304.885 L234.0714,308.1095 L232.0438,311.1208 L230.5463,314.4307 L230.7714,314.5534 L228.5806,317.4294 L227.0469,320.6634 L225.5934,323.9411 L223.6735,326.9646 L221.9988,330.1219 L222.0267,330.1367 L220.3936,333.1068 L218.8875,336.1445 L217.3202,339.1496 L215.8697,342.2168 L214.0382,345.0813 L214.3141,345.2241 L211.3846,350.8966 L208.2771,356.477 L205.4301,362.1922 L202.5954,367.9137 L199.3737,373.4351" fill="none" style="stroke:#333333;stroke-width:3.125;"/><polygon fill="#333333" points="196.5359,379.0037,196.5819,379.0604,198.0391,377.5997,199.7658,376.4714,201.4048,375.2349,202.7552,373.6425,204.505,372.5427,204.4967,372.517,203.3384,372.7659,202.2222,373.1442,201.1352,373.6125,199.9475,373.7708,198.9008,374.3632,199.0836,374.4226,198.3285,373.1747,198.1073,372.1002,197.9511,371.0469,197.416,369.8705,197.0803,368.7589,197.1039,368.7601,196.9603,370.8073,196.9244,372.8601,196.8366,374.9102,196.8478,376.9655,196.5359,379.0037" style="stroke:#333333;stroke-width:3.125;"/><text fill="#2E2E2E" font-family="Segoe Print" font-size="12.5" lengthAdjust="spacing" textLength="44.2017" x="236.7963" y="336.2752">creates</text></g><!--SRC=[VT7FIyCm50VmU_wAvxmLkqDHA2A3RbEOHwiNRp5zRSEwlF3oeWZ-yRRIiNQeX5o- -V3DhmjfyO0GzYYc_KmfIcSTgh2tpclM1tZJPjymHLTjg2E6ouVxOKo48y7rkShpudgxFLV45V8eiirDbcTAYPKEuSaQpHL14QM5KZGBCgHG8hzRWr2mQQsWaSYeb7NzQgtxVF4Ia4Tqztm5k-rg0Jh099xenmyvXgRJOSPs1z-DwObDmk5W_QGDkTesaRLOSagTDS0o-kNNQhR_lEue9cVvjHhIT5O3js0OjM3unvzA9rmDJmz27gZ-une0IL9wjgw1DP4CYj8PIP8UlI9JQcQx1fJe5RhgvuFLDm00]--></g></svg>